<?xml version="1.0" encoding="UTF-8" standalone="no"?>
<svg
   xmlns:dc="http://purl.org/dc/elements/1.1/"
   xmlns:cc="http://creativecommons.org/ns#"
   xmlns:rdf="http://www.w3.org/1999/02/22-rdf-syntax-ns#"
   xmlns:svg="http://www.w3.org/2000/svg"
   xmlns="http://www.w3.org/2000/svg"
   width="81.648972mm"
   height="81.649002mm"
   viewBox="0 0 81.648972 81.649002"
   version="1.1"
   id="svg2811">
  <defs
     id="defs2805">
    <clipPath
       clipPathUnits="userSpaceOnUse"
       id="clipPath262">
      <path
         d="m 2696.49,1667.01 c 0,-639.12 -518.11,-1157.221 -1157.23,-1157.221 -639.123,0 -1157.229,518.101 -1157.229,1157.221 0,639.12 518.106,1157.23 1157.229,1157.23 639.12,0 1157.23,-518.11 1157.23,-1157.23"
         id="path260" />
    </clipPath>
    <clipPath
       clipPathUnits="userSpaceOnUse"
       id="clipPath40">
      <path
         d="m 2696.49,6532.99 c 0,-639.12 -518.11,-1157.24 -1157.23,-1157.24 -639.123,0 -1157.229,518.12 -1157.229,1157.24 0,639.11 518.106,1157.22 1157.229,1157.22 639.12,0 1157.23,-518.11 1157.23,-1157.22"
         id="path38" />
    </clipPath>
  </defs>
  <metadata
     id="metadata2808">
    <rdf:RDF>
      <cc:Work
         rdf:about="">
        <dc:format>image/svg+xml</dc:format>
        <dc:type
           rdf:resource="http://purl.org/dc/dcmitype/StillImage" />
        <dc:title></dc:title>
      </cc:Work>
    </rdf:RDF>
  </metadata>
  <g
     id="layer1"
     transform="translate(-108.47305,-42.516337)">
    <path
       d="m 190.12202,83.340486 c 0,22.546734 -18.27777,40.824854 -40.8245,40.824854 -22.54684,0 -40.82447,-18.27812 -40.82447,-40.824854 0,-22.54638 18.27763,-40.824149 40.82447,-40.824149 22.54673,0 40.8245,18.277769 40.8245,40.824149"
       style="fill:#b67fc6;fill-opacity:1;fill-rule:nonzero;stroke:none;stroke-width:0.0352778"
       id="path16" />
    <g
       id="g34"
       transform="matrix(0.03527778,0,0,-0.03527778,94.995849,313.80985)">
      <g
         id="g36"
         clip-path="url(#clipPath40)">
        <path
           d="m 1678.59,5384.05 c -0.86,0.84 -1.69,1.7 -2.51,2.58 -1.38,1.28 -2.71,2.61 -3.99,4 -1.39,1.28 -2.72,2.61 -4,4 -1.39,1.28 -2.72,2.61 -4,4 -1.39,1.28 -2.72,2.61 -4,4 -1.39,1.28 -2.72,2.61 -4,4 -1.39,1.27 -2.72,2.61 -4,3.99 -1.39,1.28 -2.72,2.62 -4,4 -1.39,1.28 -2.72,2.62 -4,4 -1.38,1.28 -2.72,2.62 -4,4 -1.62,1.5 -3.17,3.07 -4.64,4.71 -1.14,1.08 -2.29,2.14 -3.36,3.29 -1.38,1.28 -2.72,2.61 -3.99,4 -1.39,1.28 -2.72,2.61 -4,4 -1.39,1.28 -2.72,2.61 -4,4 -1.39,1.28 -2.72,2.61 -4,4 -1.39,1.28 -2.72,2.61 -4,4 -1.39,1.28 -2.72,2.61 -4,4 -1.39,1.27 -2.72,2.61 -4,3.99 -1.39,1.28 -2.72,2.62 -4,4 -1.39,1.28 -2.72,2.62 -4,4 -1.38,1.28 -2.72,2.61 -3.99,4 -1.39,1.28 -2.72,2.61 -4,4 -1.39,1.28 -2.72,2.61 -4,4 -1.39,1.28 -2.72,2.61 -4,4 -1.39,1.28 -2.72,2.61 -4,4 -1.39,1.28 -2.72,2.61 -4,4 -1.39,1.27 -2.72,2.61 -4,3.99 -1.39,1.28 -2.72,2.62 -4,4 -1.39,1.28 -2.72,2.62 -4,4 -1.38,1.28 -2.72,2.61 -4,4 -1.38,1.28 -2.72,2.61 -4,4 -1.38,1.28 -2.72,2.61 -4,4 -1.38,1.28 -2.71,2.61 -3.99,4 -1.39,1.28 -2.72,2.61 -4,4 -1.39,1.28 -2.72,2.61 -4,4 -1.39,1.28 -2.72,2.61 -4,4 -1.39,1.28 -2.72,2.61 -4,4 -1.39,1.27 -2.72,2.61 -4,3.99 -1.39,1.28 -2.72,2.62 -4,4 -1.39,1.28 -2.72,2.62 -4,4 -1.38,1.28 -2.72,2.61 -4,4 -1.38,1.28 -2.71,2.61 -3.99,4 -1.39,1.28 -2.72,2.61 -4,4 -1.39,1.28 -2.72,2.61 -4,4 -1.39,1.28 -2.72,2.61 -4,4 -1.39,1.28 -2.72,2.61 -4,4 -1.39,1.27 -2.72,2.61 -4,3.99 -1.39,1.28 -2.72,2.62 -4,4 -1.39,1.28 -2.72,2.62 -4,4 -1.39,1.28 -2.72,2.62 -4,4 -1.38,1.28 -2.72,2.61 -4,4 -1.38,1.28 -2.72,2.61 -4,4 -1.38,1.28 -2.72,2.61 -3.99,4 -1.39,1.28 -2.72,2.61 -4,4 -1.39,1.28 -2.72,2.61 -4,4 -1.39,1.28 -2.72,2.61 -4,4 -1.39,1.28 -2.72,2.61 -4,4 -1.39,1.28 -2.72,2.61 -4,4 -1.39,1.27 -2.72,2.61 -4,3.99 -1.38,1.28 -2.72,2.61 -4,4 -1.38,1.28 -2.72,2.61 -4,4 -1.38,1.28 -2.72,2.61 -3.99,4 -1.39,1.28 -2.72,2.61 -4,4 -1.39,1.28 -2.72,2.61 -4,4 -1.39,1.28 -2.72,2.61 -4,4 -1.39,1.28 -2.72,2.61 -4,4 -1.39,1.28 -2.72,2.61 -4,4 -1.39,1.27 -2.72,2.61 -4,3.99 -1.39,1.28 -2.72,2.62 -4,4 -1.39,1.28 -2.72,2.62 -4,4 -1.38,1.28 -2.72,2.62 -4,4 -1.38,1.28 -2.72,2.61 -4,4 -1.38,1.28 -2.72,2.61 -4,4 -1.38,1.28 -2.72,2.61 -3.99,4 -1.39,1.28 -2.72,2.61 -4,4 -1.39,1.28 -2.72,2.61 -4,4 -1.39,1.28 -2.72,2.61 -4,4 -1.39,1.28 -2.72,2.61 -4,4 -1.39,1.28 -2.72,2.61 -4,3.99 -1.38,1.28 -2.72,2.61 -4,4 -1.38,1.28 -2.72,2.61 -4,4 -1.38,1.28 -2.72,2.61 -4,4 -1.38,1.28 -2.72,2.61 -3.99,4 -1.39,1.28 -2.72,2.61 -4,4 -1.39,1.28 -2.72,2.61 -4,4 -1.39,1.28 -2.72,2.61 -4,4 -1.39,1.28 -2.72,2.61 -4,4 -1.39,1.28 -2.72,2.61 -4,3.99 -1.39,1.28 -2.72,2.62 -4,4 -1.39,1.28 -2.72,2.62 -4,4 -1.39,1.28 -2.72,2.62 -4,4 -1.38,1.28 -2.72,2.61 -4,4 -1.38,1.28 -2.72,2.61 -4,4 -1.38,1.28 -2.72,2.61 -3.99,4 -1.39,1.28 -2.72,2.61 -4,4 -1.39,1.28 -2.72,2.61 -4,4 -1.39,1.28 -2.72,2.61 -4,4 -1.39,1.28 -2.72,2.61 -4,4 -1.39,1.28 -2.72,2.61 -4,3.99 -1.39,1.28 -2.72,2.62 -4,4 -1.38,1.28 -2.72,2.61 -4,4 -1.38,1.28 -2.72,2.61 -4,4 -1.38,1.28 -2.72,2.61 -3.99,4 -1.39,1.28 -2.72,2.61 -4,4 -1.39,1.28 -2.72,2.61 -4,4 -1.39,1.28 -2.72,2.61 -4,4 -1.39,1.28 -2.72,2.61 -4,4 -1.39,1.28 -2.72,2.61 -4,4 -1.39,1.27 -2.72,2.61 -4,3.99 -1.39,1.28 -2.72,2.62 -4,4 -1.39,1.28 -2.72,2.62 -4,4 -1.38,1.28 -2.72,2.62 -4,4 -1.38,1.28 -2.72,2.61 -4,4 -1.38,1.28 -2.72,2.61 -4,4 -1.38,1.28 -2.72,2.61 -3.99,4 -1.39,1.28 -2.72,2.61 -4,4 -1.39,1.28 -2.72,2.61 -4,4 -1.39,1.28 -2.72,2.61 -4,4 -1.39,1.27 -2.72,2.61 -4,3.99 -1.39,1.28 -2.72,2.62 -4,4 -1.38,1.28 -2.72,2.62 -4,4 -1.38,1.28 -2.72,2.61 -4,4 -1.38,1.28 -2.72,2.61 -4,4 -1.38,1.28 -2.72,2.61 -3.99,4 -1.39,1.28 -2.72,2.61 -4,4 -1.39,1.28 -2.72,2.61 -4,4 -1.39,1.28 -2.72,2.61 -4,4 -1.39,1.28 -2.72,2.61 -4,4 -1.39,1.28 -2.72,2.61 -4,4 -1.39,1.27 -2.72,2.61 -4,3.99 -1.39,1.28 -2.72,2.62 -4,4 -1.39,1.28 -2.72,2.62 -4,4 -1.38,1.28 -2.72,2.62 -4,4 -1.38,1.28 -2.72,2.61 -4,4 -1.62,1.5 -3.17,3.07 -4.64,4.71 -1.14,1.08 -2.29,2.14 -3.35,3.29 -1.39,1.28 -2.72,2.61 -4,4 -1.39,1.28 -2.72,2.61 -4,4 -1.39,1.27 -2.72,2.61 -4,3.99 -1.39,1.28 -2.72,2.62 -4,4 -1.39,1.28 -2.72,2.62 -4,4 -1.38,1.28 -2.72,2.61 -4,4 -1.38,1.28 -2.72,2.61 -4,4 -1.38,1.28 -2.72,2.61 -4,4 -1.38,1.28 -2.71,2.61 -3.99,4 -1.39,1.28 -2.72,2.61 -4,4 -1.39,1.28 -2.72,2.61 -4,4 -1.39,1.28 -2.72,2.61 -4,4 -1.39,1.28 -2.72,2.61 -4,4 -1.39,1.27 -2.72,2.61 -4,3.99 -1.39,1.28 -2.72,2.62 -4,4 -1.39,1.28 -2.72,2.62 -4,4 -1.39,1.28 -2.72,2.62 -4,4 -1.38,1.28 -2.72,2.61 -4,4 -1.38,1.28 -2.72,2.61 -4,4 -1.38,1.28 -2.72,2.61 -3.99,4 -1.39,1.28 -2.72,2.61 -4,4 -1.39,1.28 -2.72,2.61 -4,4 -1.39,1.27 -2.72,2.61 -4,3.99 -1.39,1.28 -2.72,2.62 -4,4 -1.39,1.28 -2.72,2.62 -4,4 -1.38,1.28 -2.72,2.62 -4,4 -1.38,1.28 -2.72,2.61 -4,4 -1.38,1.28 -2.72,2.61 -4,4 -1.38,1.28 -2.72,2.61 -3.99,4 -1.39,1.28 -2.72,2.61 -4,4 -1.39,1.28 -2.72,2.61 -4,4 -1.39,1.28 -2.72,2.61 -4,4 -1.39,1.28 -2.72,2.61 -4,4 -1.387,1.28 -2.723,2.61 -4,4 -1.387,1.27 -2.719,2.61 -4,3.99 -1.387,1.28 -2.719,2.62 -4,4 -1.387,1.28 -2.719,2.62 -3.996,4 -1.391,1.28 -2.723,2.62 -4,4 -1.387,1.28 -2.723,2.61 -4,4 -1.387,1.28 -2.719,2.61 -3.996,4 -1.387,1.28 -2.723,2.61 -4,4 -1.387,1.28 -2.719,2.61 -4,4 -1.387,1.28 -2.719,2.61 -3.996,4 -1.391,1.27 -2.723,2.61 -4,3.99 -1.387,1.28 -2.719,2.62 -4,4 -1.387,1.28 -2.719,2.62 -4,4 -1.387,1.28 -2.719,2.62 -4,4 -1.387,1.28 -2.719,2.61 -3.996,4 -1.387,1.28 -2.723,2.61 -4,4 -1.387,1.28 -2.719,2.61 -4,4 -1.387,1.28 -2.719,2.61 -4,4 -1.387,1.28 -2.719,2.61 -4,4 -1.387,1.28 -2.719,2.61 -3.996,4 -1.387,1.28 -2.723,2.61 -4,4 -1.387,1.28 -2.719,2.61 -4,3.99 -1.387,1.28 -2.719,2.62 -4,4 -1.387,1.28 -2.719,2.62 -4,4 -1.383,1.28 -2.719,2.62 -3.997,4 -1.386,1.28 -2.722,2.61 -4,4 -1.382,1.28 -2.718,2.61 -3.996,4 -1.386,1.28 -2.718,2.61 -4,4 -1.386,1.28 -2.718,2.61 -4,4 -1.386,1.28 -2.718,2.61 -4,4 -1.386,1.28 -2.718,2.61 -3.996,3.99 -1.386,1.28 -2.722,2.62 -4,4 -1.386,1.28 -2.718,2.62 -4,4 -1.386,1.28 -2.718,2.62 -4,4 -1.386,1.28 -2.718,2.61 -4,4 -1.386,1.28 -2.718,2.61 -3.996,4 -1.387,1.28 -2.722,2.61 -4,4 -1.144,1.06 -2.254,2.15 -3.324,3.28 12.512,-11.24 29.059,-18.08 47.199,-18.08 39.035,0 70.672,31.64 70.672,70.68 v -69.5 0 c 0,-62.28 50.478,-112.76 112.748,-112.76 62.28,0 112.76,50.48 112.76,112.76 v 91.62 0 36.73 h 484.39 v -128.35 0 c 0,-62.28 50.48,-112.76 112.75,-112.76 62.28,0 112.76,50.48 112.76,112.76 v 69.5 c 0,-39.04 31.63,-70.68 70.67,-70.68 39.03,0 70.67,31.64 70.67,70.68 v 58.85 h 57.66 c 31.97,0 57.88,25.91 57.88,57.87 v 0 0 0 c 0,0.13 0,0.25 0,0.37 -0.2,31.78 -26.03,57.49 -57.88,57.49 h -43.51 c 9.07,16.25 14.24,34.97 14.24,54.9 v 91.62 0 36.74 h 0.01 v -58.86 0 c 0,-39.04 31.62,-70.68 70.66,-70.68 39.03,0 70.68,31.64 70.68,70.68 v 58.86 h 57.66 c 31.96,0 57.87,25.9 57.87,57.86 v 0 0 0 c 0,0.12 0,0.24 0,0.36 -0.2,31.8 -26.03,57.51 -57.87,57.51 h -57.66 v 58.85 c 0,18.15 -6.84,34.7 -18.08,47.21 1.13,-1.07 2.22,-2.18 3.28,-3.33 1.39,-1.28 2.72,-2.61 4,-4 1.39,-1.28 2.72,-2.61 4,-4 1.39,-1.28 2.71,-2.61 4,-3.99 1.39,-1.29 2.71,-2.62 4,-4 1.38,-1.29 2.71,-2.62 4,-4 1.38,-1.29 2.71,-2.62 3.99,-4 1.39,-1.29 2.72,-2.61 4,-4 1.39,-1.29 2.72,-2.61 4,-4 1.39,-1.28 2.72,-2.61 4,-4 1.39,-1.28 2.72,-2.61 4,-4 1.39,-1.28 2.71,-2.61 4,-4 1.39,-1.28 2.71,-2.61 4,-4 1.39,-1.28 2.71,-2.61 4,-3.99 1.38,-1.29 2.71,-2.62 4,-4 1.38,-1.29 2.71,-2.62 4,-4 1.38,-1.29 2.71,-2.61 3.99,-4 1.39,-1.29 2.72,-2.61 4,-4 1.39,-1.28 2.72,-2.61 4,-4 1.39,-1.28 2.72,-2.61 4,-4 1.39,-1.28 2.72,-2.61 4,-4 1.39,-1.28 2.72,-2.61 4,-4 1.39,-1.28 2.72,-2.61 4,-4 1.39,-1.28 2.71,-2.61 4,-4 1.39,-1.28 2.71,-2.61 4,-3.99 1.38,-1.29 2.71,-2.62 3.99,-4 1.39,-1.29 2.72,-2.62 4,-4 1.39,-1.29 2.72,-2.62 4,-4 1.39,-1.29 2.72,-2.61 4,-4 1.39,-1.29 2.72,-2.61 4,-4 1.39,-1.28 2.72,-2.61 4,-4 1.39,-1.28 2.72,-2.61 4,-4 1.39,-1.28 2.71,-2.61 4,-4 1.39,-1.28 2.71,-2.61 4,-3.99 1.38,-1.29 2.71,-2.62 4,-4 1.38,-1.29 2.71,-2.62 4,-4 1.38,-1.29 2.71,-2.62 4,-4 1.38,-1.29 2.71,-2.61 3.99,-4 1.39,-1.29 2.72,-2.61 4,-4 1.39,-1.28 2.72,-2.61 4,-4 1.39,-1.28 2.72,-2.61 4,-4 1.39,-1.28 2.72,-2.61 4,-4 1.39,-1.28 2.72,-2.61 4,-4 1.39,-1.28 2.72,-2.61 4,-4 1.39,-1.28 2.71,-2.61 4,-3.99 1.38,-1.29 2.71,-2.62 4,-4 1.38,-1.29 2.71,-2.62 3.99,-4 1.39,-1.29 2.72,-2.62 4,-4 1.39,-1.29 2.72,-2.61 4,-4 1.39,-1.29 2.72,-2.61 4,-4 1.39,-1.28 2.72,-2.61 4,-4 1.39,-1.28 2.72,-2.61 4,-4 1.39,-1.28 2.72,-2.61 4,-4 1.39,-1.28 2.71,-2.61 4,-3.99 1.39,-1.29 2.71,-2.62 4,-4 1.38,-1.29 2.71,-2.62 4,-4 1.38,-1.29 2.71,-2.62 4,-4 1.38,-1.29 2.71,-2.61 4,-4 1.38,-1.29 2.71,-2.61 3.99,-4 1.39,-1.28 2.72,-2.61 4,-4 1.39,-1.28 2.72,-2.61 4,-4 1.39,-1.28 2.72,-2.61 4,-4 1.39,-1.28 2.72,-2.61 4,-4 1.39,-1.28 2.72,-2.61 4,-4 1.39,-1.28 2.71,-2.61 4,-4 1.38,-1.28 2.71,-2.61 4,-3.99 1.38,-1.29 2.71,-2.62 3.99,-4 1.39,-1.29 2.72,-2.62 4,-4 1.39,-1.29 2.72,-2.62 4,-4 1.39,-1.29 2.72,-2.61 4,-4 1.39,-1.29 2.72,-2.61 4,-4 1.15,-1.06 2.22,-2.23 3.3,-3.36 1.64,-1.48 3.2,-3.02 4.7,-4.64 1.39,-1.28 2.71,-2.61 4,-4 1.39,-1.28 2.71,-2.61 4,-3.99 1.38,-1.29 2.71,-2.62 4,-4 1.38,-1.29 2.71,-2.62 4,-4 1.38,-1.29 2.71,-2.62 4,-4 1.38,-1.29 2.71,-2.61 3.99,-4 1.39,-1.29 2.72,-2.61 4,-4 1.39,-1.28 2.72,-2.61 4,-4 1.39,-1.28 2.72,-2.61 4,-4 1.39,-1.28 2.72,-2.61 4,-4 1.39,-1.28 2.72,-2.61 4,-4 1.38,-1.28 2.71,-2.61 4,-4 1.38,-1.28 2.71,-2.61 4,-4 1.38,-1.28 2.71,-2.61 4,-3.99 1.38,-1.29 2.71,-2.62 3.99,-4 1.39,-1.29 2.72,-2.62 4,-4 1.39,-1.29 2.72,-2.61 4,-4 1.39,-1.29 2.72,-2.61 4,-4 1.39,-1.28 2.72,-2.61 4,-4 1.39,-1.28 2.72,-2.61 4,-4 1.39,-1.28 2.72,-2.61 4,-4 1.39,-1.28 2.71,-2.61 4,-4 1.39,-1.28 2.71,-2.61 4,-3.99 1.38,-1.29 2.71,-2.62 4,-4 1.38,-1.29 2.71,-2.62 4,-4 1.38,-1.29 2.71,-2.61 4,-4 1.38,-1.29 2.71,-2.61 3.99,-4 1.39,-1.29 2.72,-2.61 4,-4 1.39,-1.28 2.72,-2.61 4,-4 1.39,-1.28 2.72,-2.61 4,-4 1.39,-1.28 2.71,-2.61 4,-4 1.39,-1.28 2.71,-2.61 4,-4 1.38,-1.28 2.71,-2.61 4,-4 1.38,-1.28 2.71,-2.61 4,-3.99 1.38,-1.29 2.71,-2.62 4,-4 1.38,-1.29 2.71,-2.62 3.99,-4 1.39,-1.29 2.72,-2.62 4,-4 1.39,-1.29 2.72,-2.61 4,-4 1.39,-1.28 2.72,-2.61 4,-4 1.39,-1.28 2.72,-2.61 4,-4 1.39,-1.28 2.72,-2.61 4,-4 1.39,-1.28 2.72,-2.61 4,-4 1.39,-1.28 2.71,-2.61 4,-3.99 1.39,-1.29 2.71,-2.62 4,-4 1.38,-1.29 2.71,-2.62 4,-4 1.38,-1.29 2.71,-2.62 4,-4 1.38,-1.29 2.71,-2.61 3.99,-4 1.39,-1.29 2.72,-2.61 4,-4 1.39,-1.28 2.72,-2.61 4,-4 0.31,-0.29 0.62,-0.58 0.93,-0.87 -77.54,-510.78 -488.99,-911.91 -1004.74,-973.81 m -846.961,853.41 c -0.922,0.89 -1.793,1.82 -2.656,2.77 -1.395,1.27 -2.731,2.6 -3.996,4 -1.399,1.27 -2.731,2.6 -4,4 -1.399,1.27 -2.731,2.6 -3.997,4 -1.398,1.27 -2.73,2.6 -4,3.99 -1.398,1.27 -2.73,2.61 -4,4 -1.394,1.27 -2.73,2.61 -4,4 -1.394,1.27 -2.726,2.61 -4,4 -1.394,1.27 -2.726,2.6 -3.996,4 -1.398,1.27 -2.73,2.6 -4,4 -1.398,1.27 -2.73,2.6 -4,4 -1.394,1.27 -2.73,2.6 -4,4 -1.394,1.27 -2.726,2.6 -4,4 -1.394,1.27 -2.726,2.6 -3.996,4 -1.398,1.27 -2.73,2.6 -4,4 -1.394,1.27 -2.73,2.6 -4,4 -1.394,1.26 -2.73,2.6 -4,3.99 -1.394,1.27 -2.726,2.61 -3.996,4 -1.398,1.27 -2.73,2.61 -4,4 -1.398,1.27 -2.73,2.61 -4,4 -1.394,1.27 -2.73,2.6 -4,4 -1.394,1.27 -2.726,2.6 -4,4 -1.394,1.27 -2.726,2.6 -3.996,4 -1.394,1.27 -2.726,2.6 -4,4 -1.394,1.27 -2.726,2.6 -3.996,4 -1.23,1.11 -2.414,2.28 -3.547,3.5 10.211,-9.05 23.645,-14.55 38.363,-14.55 h 57.676 v -58.85 0 c 0,-10.28 2.192,-20.04 6.137,-28.85 m -121.637,143.52 c 0,0.03 -0.004,0.06 -0.004,0.09 0,-0.03 0.004,-0.06 0.004,-0.09 m -0.008,0.26 c -0.004,0.08 -0.004,0.15 -0.007,0.23 0.003,-0.08 0.003,-0.15 0.007,-0.23 m -0.011,0.36 c 0,0.09 -0.004,0.18 -0.004,0.27 0,-0.09 0.004,-0.18 0.004,-0.27 m -0.008,0.36 c 0,0.1 0,0.2 -0.004,0.3 0.004,-0.1 0.004,-0.2 0.004,-0.3 m -0.004,0.36 c 0,0.11 -0.004,0.22 -0.004,0.33 0,-0.11 0.004,-0.22 0.004,-0.33 m -0.004,0.36 c 0,0.12 0,0.24 0,0.35 0,-0.11 0,-0.23 0,-0.35 m 35.891,53.9 c 0.004,0 0.007,0 0.015,0 -0.004,0 -0.011,0 -0.015,0 m 0.265,0.1 c 0.02,0.01 0.035,0.02 0.051,0.02 -0.016,0 -0.035,-0.01 -0.051,-0.02 m 0.289,0.12 c 0.024,0.01 0.043,0.02 0.067,0.03 -0.024,-0.01 -0.043,-0.02 -0.067,-0.03 m 0.297,0.12 c 0.02,0.01 0.043,0.01 0.067,0.02 -0.024,-0.01 -0.047,-0.01 -0.067,-0.02 m 0.297,0.11 c 0.024,0.01 0.039,0.02 0.063,0.03 -0.02,-0.01 -0.043,-0.02 -0.063,-0.03 m 0.863,0.33 c 0.008,0 0.016,0 0.024,0.01 -0.012,-0.01 -0.016,-0.01 -0.024,-0.01 m 0.231,0.08 c 0.035,0.01 0.07,0.03 0.105,0.04 -0.035,-0.01 -0.07,-0.03 -0.105,-0.04 m 0.293,0.11 c 0.043,0.01 0.086,0.03 0.129,0.04 -0.043,-0.01 -0.086,-0.03 -0.129,-0.04 m 0.301,0.1 c 0.05,0.02 0.097,0.04 0.144,0.05 -0.047,-0.01 -0.094,-0.03 -0.144,-0.05 m 0.316,0.11 c 0.051,0.02 0.098,0.04 0.148,0.05 -0.05,-0.01 -0.097,-0.03 -0.148,-0.05 m 0.309,0.11 c 0.054,0.02 0.113,0.04 0.171,0.06 -0.058,-0.02 -0.113,-0.04 -0.171,-0.06 m 0.316,0.11 c 0.07,0.02 0.145,0.04 0.215,0.07 -0.07,-0.03 -0.141,-0.05 -0.215,-0.07 m 0.379,0.12 c 0.082,0.03 0.164,0.05 0.246,0.08 -0.082,-0.03 -0.164,-0.06 -0.246,-0.08 m 0.363,0.11 c 0.071,0.03 0.141,0.05 0.211,0.07 -0.07,-0.02 -0.14,-0.04 -0.211,-0.07 m 0.324,0.11 c 0.071,0.02 0.137,0.04 0.211,0.06 -0.07,-0.02 -0.144,-0.04 -0.211,-0.06 m 0.329,0.1 c 0.07,0.02 0.14,0.04 0.21,0.06 -0.07,-0.02 -0.14,-0.04 -0.21,-0.06 m 0.328,0.09 c 0.07,0.03 0.14,0.05 0.215,0.07 -0.075,-0.02 -0.145,-0.04 -0.215,-0.07 m 0.324,0.1 c 0.082,0.02 0.164,0.05 0.246,0.07 -0.082,-0.02 -0.164,-0.05 -0.246,-0.07 m 0.32,0.09 c 0.223,0.07 0.446,0.13 0.664,0.19 -0.218,-0.06 -0.441,-0.12 -0.664,-0.19 m 0.715,0.2 c 0.094,0.03 0.188,0.05 0.281,0.08 -0.093,-0.03 -0.187,-0.05 -0.281,-0.08 m 0.359,0.1 c 0.086,0.02 0.172,0.04 0.258,0.06 -0.086,-0.02 -0.172,-0.04 -0.258,-0.06 m 0.34,0.08 c 0.082,0.03 0.168,0.05 0.25,0.07 -0.082,-0.02 -0.168,-0.04 -0.25,-0.07 m 0.344,0.09 c 0.082,0.02 0.164,0.04 0.25,0.06 -0.082,-0.02 -0.168,-0.04 -0.25,-0.06 m 0.332,0.08 c 0.094,0.03 0.184,0.05 0.277,0.07 -0.089,-0.02 -0.187,-0.04 -0.277,-0.07 m 0.332,0.08 c 0.227,0.06 0.457,0.11 0.688,0.16 -0.231,-0.05 -0.461,-0.1 -0.688,-0.16 m 0.691,0.16 c 0.11,0.03 0.223,0.05 0.333,0.08 -0.11,-0.03 -0.223,-0.05 -0.333,-0.08 m 0.387,0.09 c 0.094,0.02 0.188,0.04 0.281,0.06 -0.093,-0.02 -0.187,-0.04 -0.281,-0.06 m 0.356,0.07 c 0.093,0.02 0.179,0.04 0.273,0.06 -0.09,-0.02 -0.183,-0.04 -0.273,-0.06 m 0.343,0.07 c 0.094,0.02 0.184,0.04 0.274,0.06 -0.09,-0.02 -0.18,-0.04 -0.274,-0.06 m 0.344,0.07 c 0.098,0.02 0.195,0.04 0.293,0.06 -0.098,-0.02 -0.195,-0.04 -0.293,-0.06 m 0.344,0.07 c 0.344,0.07 0.691,0.13 1.039,0.19 -0.348,-0.06 -0.695,-0.12 -1.039,-0.19 m 1.101,0.2 c 0.09,0.02 0.184,0.03 0.278,0.05 -0.094,-0.02 -0.188,-0.03 -0.278,-0.05 m 0.364,0.06 c 0.086,0.02 0.172,0.03 0.258,0.04 -0.086,-0.01 -0.172,-0.02 -0.258,-0.04 m 0.351,0.06 c 0.086,0.01 0.172,0.03 0.258,0.04 -0.086,-0.01 -0.176,-0.03 -0.258,-0.04 m 0.344,0.05 c 0.09,0.02 0.18,0.03 0.266,0.04 -0.086,-0.01 -0.176,-0.02 -0.266,-0.04 m 0.348,0.05 c 0.109,0.02 0.218,0.04 0.328,0.05 -0.11,-0.01 -0.219,-0.03 -0.328,-0.05 m 0.34,0.05 c 0.121,0.02 0.238,0.04 0.359,0.05 -0.121,-0.01 -0.238,-0.03 -0.359,-0.05 m 0.378,0.05 c 0.11,0.02 0.219,0.03 0.325,0.05 -0.11,-0.02 -0.215,-0.03 -0.325,-0.05 m 0.403,0.06 c 0.086,0.01 0.176,0.02 0.265,0.03 -0.089,-0.01 -0.175,-0.02 -0.265,-0.03 m 0.371,0.04 c 0.082,0.01 0.16,0.02 0.242,0.03 -0.082,-0.01 -0.16,-0.02 -0.242,-0.03 m 0.351,0.04 c 0.083,0.01 0.161,0.02 0.243,0.03 -0.082,-0.01 -0.16,-0.02 -0.243,-0.03 m 0.348,0.04 c 0.09,0.01 0.176,0.02 0.262,0.03 -0.086,-0.01 -0.172,-0.02 -0.262,-0.03 m 0.348,0.04 c 0.097,0.01 0.199,0.02 0.301,0.03 -0.102,-0.01 -0.204,-0.02 -0.301,-0.03 m 0.347,0.03 c 0.122,0.01 0.239,0.02 0.36,0.03 -0.121,-0.01 -0.238,-0.02 -0.36,-0.03 m 0.372,0.04 c 0.113,0.01 0.222,0.01 0.332,0.02 -0.11,-0.01 -0.219,-0.01 -0.332,-0.02 m 0.429,0.03 c 0.082,0.01 0.168,0.02 0.254,0.02 -0.086,0 -0.172,-0.01 -0.254,-0.02 m 0.364,0.03 c 0.082,0.01 0.16,0.01 0.238,0.02 -0.078,-0.01 -0.16,-0.01 -0.238,-0.02 m 0.363,0.03 c 0.074,0 0.148,0.01 0.226,0.01 -0.074,0 -0.152,-0.01 -0.226,-0.01 m 0.351,0.02 c 0.078,0 0.157,0.01 0.235,0.01 -0.078,0 -0.157,-0.01 -0.235,-0.01 m 0.352,0.02 c 0.09,0.01 0.176,0.01 0.266,0.01 -0.086,0 -0.176,0 -0.266,-0.01 m 0.351,0.02 c 0.114,0 0.235,0.01 0.352,0.02 -0.117,-0.01 -0.234,-0.02 -0.352,-0.02 m 0.403,0.02 c 0.101,0 0.199,0.01 0.301,0.01 -0.102,0 -0.204,-0.01 -0.301,-0.01 m 0.414,0.01 c 0.078,0.01 0.156,0.01 0.234,0.01 -0.078,0 -0.156,0 -0.234,-0.01 m 0.375,0.02 c 0.07,0 0.144,0 0.215,0 -0.074,0 -0.145,0 -0.215,0 m 0.355,0.01 c 0.071,0 0.141,0 0.211,0 -0.07,0 -0.14,0 -0.211,0 m 0.356,0 c 0.074,0.01 0.144,0.01 0.219,0.01 -0.075,0 -0.149,0 -0.219,-0.01 m 0.351,0.01 c 0.082,0 0.161,0 0.243,0 -0.082,0 -0.161,0 -0.243,0 m 0.356,0 c 0.117,0 0.234,0 0.351,0 h 57.676 v 58.86 c 0,39.03 31.641,70.67 70.668,70.67 v 0 0 c -39.027,0 -70.668,-31.64 -70.668,-70.67 v -58.86 h -57.676 c -0.117,0 -0.238,0 -0.351,0 m 909.265,0 h -328.9 c 9.07,16.25 14.24,34.97 14.24,54.9 v 91.62 0 36.74 h 328.9 c -9.07,-16.25 -14.24,-34.97 -14.24,-54.9 v -128.36 m -709.898,58.86 c 0,18.15 -6.84,34.7 -18.086,47.22 1.133,-1.08 2.231,-2.19 3.289,-3.34 1.387,-1.28 2.723,-2.61 4,-4 1.387,-1.27 2.723,-2.61 4,-3.99 1.387,-1.28 2.719,-2.62 4,-4 0.945,-0.88 1.899,-1.76 2.797,-2.68 v 40.29 0 -69.5 m -69.461,70.66 c -0.004,0 -0.008,0 -0.016,0 0.008,0 0.012,0 0.016,0 m -0.23,0.01 c -0.008,0 -0.016,0 -0.028,0 0.012,0 0.02,0 0.028,0 m -0.223,0 c -0.012,0 -0.031,0 -0.043,0 0.012,0 0.027,0 0.043,0 m -0.227,0 c -0.019,0 -0.039,0 -0.058,0 0.019,0 0.039,0 0.058,0 m -0.253,0 c -0.012,0 -0.024,0 -0.04,0 0.012,0 0.028,0 0.04,0 m 70.41,0.64 -0.137,0.15 c -1.398,1.26 -2.731,2.6 -4,3.99 -1.398,1.27 -2.731,2.61 -4,4 -1.395,1.27 -2.731,2.61 -3.996,4 -1.399,1.27 -2.731,2.61 -4,4 -1.399,1.27 -2.731,2.6 -4,4 -1.399,1.27 -2.731,2.6 -4,4 -1.395,1.27 -2.731,2.6 -4,4 -1.395,1.27 -2.731,2.6 -3.996,4 -1.399,1.27 -2.731,2.6 -4,4 -1.399,1.27 -2.731,2.6 -4,4 -1.399,1.27 -2.731,2.6 -4,4 -1.395,1.27 -2.731,2.6 -4,4 -1.395,1.26 -2.727,2.6 -3.996,3.99 -1.399,1.27 -2.731,2.61 -4,4 -1.399,1.27 -2.731,2.61 -4,4 -1.399,1.27 -2.731,2.61 -4,4 -1.235,1.12 -2.418,2.29 -3.551,3.51 10.211,-9.05 23.652,-14.55 38.383,-14.55 h 43.519 c -8.797,-15.76 -13.926,-33.84 -14.226,-53.09 m -87.129,108.93 c 0,0.01 0,0.03 -0.004,0.04 0.004,-0.01 0.004,-0.03 0.004,-0.04 m -0.008,0.23 c -0.004,0.07 -0.004,0.15 -0.008,0.23 0.004,-0.08 0.004,-0.16 0.008,-0.23 m -0.012,0.36 c 0,0.08 -0.004,0.17 -0.004,0.26 0,-0.09 0.004,-0.18 0.004,-0.26 m -0.008,0.36 c 0,0.1 0,0.2 -0.003,0.3 0.003,-0.1 0.003,-0.2 0.003,-0.3 m -0.003,0.36 c 0,0.11 -0.004,0.21 -0.004,0.32 0,-0.11 0.004,-0.22 0.004,-0.32 m -0.004,0.36 c 0,0.11 0,0.23 0,0.35 0,-0.12 0,-0.24 0,-0.35 m 51.027,57.82 c 0.012,0 0.019,0 0.031,0 -0.012,0 -0.019,0 -0.031,0 m 0.324,0.03 c 0.012,0.01 0.024,0.01 0.035,0.01 -0.011,0 -0.023,0 -0.035,-0.01 m 0.324,0.04 c 0.012,0 0.024,0 0.036,0 -0.012,0 -0.024,0 -0.036,0 m 1.231,0.12 c 0.027,0 0.055,0 0.082,0 -0.027,0 -0.059,0 -0.082,0 m 0.305,0.02 c 0.039,0.01 0.082,0.01 0.125,0.01 -0.043,0 -0.086,0 -0.125,-0.01 m 0.328,0.03 c 0.047,0 0.097,0 0.144,0.01 -0.051,-0.01 -0.097,-0.01 -0.144,-0.01 m 0.34,0.02 c 0.05,0.01 0.101,0.01 0.152,0.01 -0.047,0 -0.102,0 -0.152,-0.01 m 0.339,0.02 c 0.059,0.01 0.114,0.01 0.168,0.01 -0.054,0 -0.109,0 -0.168,-0.01 m 0.348,0.02 c 0.063,0.01 0.129,0.01 0.191,0.02 -0.062,-0.01 -0.128,-0.01 -0.191,-0.02 m 0.344,0.02 c 0.113,0.01 0.222,0.01 0.336,0.02 -0.114,-0.01 -0.223,-0.01 -0.336,-0.02 m 0.48,0.03 c 0.071,0 0.141,0 0.207,0 -0.066,0 -0.136,0 -0.207,0 m 0.36,0.01 c 0.066,0 0.132,0 0.199,0.01 -0.067,-0.01 -0.133,-0.01 -0.199,-0.01 m 0.355,0.01 c 0.066,0 0.133,0 0.203,0.01 -0.07,-0.01 -0.137,-0.01 -0.203,-0.01 m 0.352,0.01 c 0.07,0 0.136,0 0.203,0 -0.067,0 -0.137,0 -0.203,0 m 0.351,0.01 c 0.071,0 0.145,0 0.215,0 -0.07,0 -0.144,0 -0.215,0 m 0.356,0 c 0.078,0 0.156,0 0.23,0.01 -0.078,-0.01 -0.152,-0.01 -0.23,-0.01 m 0.351,0.01 c 0.117,0 0.239,0 0.356,0 h 57.668 v 58.85 c 0,39.03 31.647,70.68 70.667,70.68 v 0 0 c -39.02,0 -70.667,-31.65 -70.667,-70.68 v -58.85 h -57.668 c -0.117,0 -0.239,0 -0.356,0 m 1134.781,0 h -0.01 v 128.35 c 0,29.41 -11.26,56.18 -29.69,76.26 0.87,-0.86 1.73,-1.73 2.57,-2.62 1.37,-1.3 2.7,-2.63 4,-4 1.37,-1.3 2.7,-2.63 4,-4 1.36,-1.3 2.7,-2.63 4,-4 1.36,-1.3 2.7,-2.63 4,-4 1.36,-1.3 2.7,-2.63 3.99,-3.99 1.37,-1.31 2.7,-2.64 4,-4.01 1.37,-1.3 2.7,-2.63 4,-3.99 1.37,-1.31 2.7,-2.63 4,-4.01 1.37,-1.3 2.7,-2.62 4,-3.99 1.37,-1.3 2.7,-2.63 4,-4.01 1.37,-1.29 2.7,-2.62 4,-3.99 1.36,-1.3 2.7,-2.63 4,-4 1.36,-1.3 2.7,-2.63 4,-4 1.36,-1.3 2.7,-2.63 3.99,-4 1.37,-1.3 2.71,-2.63 4,-4 1.37,-1.3 2.7,-2.63 4,-4 1.37,-1.3 2.7,-2.63 4,-3.99 1.37,-1.31 2.7,-2.64 4,-4.01 1.35,-1.28 2.66,-2.58 3.94,-3.92 -28.33,-9.22 -48.79,-35.83 -48.79,-67.23 v -58.85 m -225.52,0 h -484.39 v 128.35 c 0,29.42 -11.26,56.19 -29.7,76.27 0.87,-0.87 1.73,-1.74 2.58,-2.63 1.37,-1.3 2.7,-2.63 4,-4 1.37,-1.3 2.7,-2.63 4,-4 1.37,-1.3 2.7,-2.63 4,-4 1.37,-1.3 2.69,-2.63 4,-4 1.37,-1.3 2.69,-2.63 4,-3.99 1.36,-1.31 2.69,-2.64 4,-4 1.36,-1.31 2.69,-2.64 3.99,-4 1.37,-1.31 2.7,-2.63 4,-4 1.37,-1.31 2.7,-2.63 4,-4 1.37,-1.3 2.7,-2.63 4,-4 1.37,-1.3 2.7,-2.63 4,-4 1.37,-1.3 2.69,-2.63 4,-4 1.37,-1.3 2.69,-2.63 4,-4 1.37,-1.3 2.69,-2.63 4,-4 1.36,-1.3 2.69,-2.63 4,-4 1.36,-1.3 2.69,-2.63 4,-4 1.36,-1.3 2.69,-2.63 3.99,-3.99 1.37,-1.31 2.7,-2.64 4,-4 1.37,-1.3 2.7,-2.63 4,-4 1.37,-1.3 2.7,-2.63 4,-4 1.37,-1.3 2.7,-2.63 4,-4 1.37,-1.3 2.7,-2.63 4,-4 1.37,-1.3 2.7,-2.63 4,-4 1.37,-1.3 2.69,-2.63 4,-4 1.37,-1.3 2.69,-2.63 4,-4 1.37,-1.3 2.69,-2.63 4,-3.99 1.36,-1.31 2.69,-2.64 3.99,-4 1.37,-1.31 2.7,-2.64 4,-4 1.37,-1.31 2.7,-2.63 4,-4 1.37,-1.31 2.7,-2.63 4,-4 1.37,-1.3 2.7,-2.63 4,-4 1.37,-1.3 2.7,-2.63 4,-4 1.37,-1.3 2.69,-2.63 4,-4 1.37,-1.3 2.69,-2.63 4,-4 1.36,-1.3 2.69,-2.63 4,-4 1.36,-1.3 2.69,-2.63 4,-4 1.36,-1.3 2.69,-2.63 4,-3.99 1.36,-1.31 2.69,-2.63 3.99,-4 1.37,-1.31 2.7,-2.63 4,-4 1.37,-1.3 2.7,-2.63 4,-4 1.37,-1.3 2.7,-2.63 4,-4 1.37,-1.3 2.7,-2.63 4,-4 1.37,-1.3 2.7,-2.63 4,-4 1.37,-1.3 2.7,-2.63 4,-4 1.37,-1.3 2.69,-2.63 4,-4 1.37,-1.3 2.69,-2.63 4,-3.99 1.36,-1.31 2.69,-2.64 3.99,-4 1.37,-1.31 2.7,-2.64 4,-4 1.37,-1.31 2.7,-2.63 4,-4 1.37,-1.31 2.7,-2.63 4,-4 l 2.22,-2.04 h 309.34 v 128.35 c 0,62.28 50.48,112.76 112.75,112.76 v 0 0 c -62.27,0 -112.75,-50.48 -112.75,-112.76 v -128.35 m -709.9,58.85 c 0,18.15 -6.84,34.71 -18.09,47.22 1.14,-1.07 2.24,-2.19 3.3,-3.34 1.39,-1.28 2.71,-2.61 4,-4 1.38,-1.28 2.72,-2.61 3.99,-4 1.39,-1.27 2.72,-2.61 4,-3.99 0.95,-0.88 1.9,-1.76 2.8,-2.69 v 40.3 c 0,62.28 50.48,112.76 112.75,112.76 v 0 0 c -62.27,0 -112.75,-50.48 -112.75,-112.76 v -69.5 m -69.45,70.67 c -0.01,0 -0.02,0 -0.03,0 0.01,0 0.02,0 0.03,0 m 1076.75,0 c -0.01,0 -0.02,0 -0.03,0 0.01,0 0.02,0 0.03,0 m -1076.98,0 c -0.01,0 -0.03,0 -0.04,0 0.01,0 0.03,0 0.04,0 m 1076.75,0 c -0.01,0 -0.03,0 -0.04,0 0.02,0 0.03,0 0.04,0 m -1076.97,0 c -0.02,0 -0.04,0 -0.06,0 0.02,0 0.04,0 0.06,0 m 1076.75,0 c -0.02,0 -0.04,0 -0.06,0 0.02,0 0.04,0 0.06,0 m -1076.98,0 c -0.03,0 -0.05,0 -0.07,0 0.02,0 0.04,0 0.07,0 m 1076.75,0 c -0.02,0 -0.05,0 -0.07,0 0.02,0 0.05,0 0.07,0 m -0.92,0 c 0.02,0 0.04,0 0.05,0 -0.01,0 -0.03,0 -0.05,0 m -1076.09,0 c -0.02,0 -0.03,0.01 -0.04,0.01 0.01,0 0.02,-0.01 0.04,-0.01 m 1076.75,0 c -0.02,0 -0.03,0.01 -0.04,0.01 0.01,0 0.02,-0.01 0.04,-0.01 m -891.71,111.57 c -0.01,0 -0.02,0 -0.02,0 0,0 0.01,0 0.02,0 m 709.9,0 c 0,0 -0.01,0 -0.02,0 0.01,0 0.02,0 0.02,0 m -710.26,0.01 c -0.01,0 -0.03,0 -0.04,0 0.01,0 0.03,0 0.04,0 m 709.91,0 c -0.02,0 -0.03,0 -0.05,0 0.02,0 0.03,0 0.05,0 m -0.34,0 c -0.03,0 -0.06,0 -0.09,0 0.03,0 0.06,0 0.09,0 m -709.9,0 c -0.03,0 -0.06,0 -0.09,0 0.03,0 0.06,0 0.09,0 m 709.52,0 c -0.03,0 -0.06,0 -0.08,0 0.03,0 0.05,0 0.08,0 m -709.91,0 c -0.02,0 -0.05,0 -0.07,0 0.02,0 0.05,0 0.07,0 m 709.55,0.01 c -0.03,0 -0.06,0 -0.1,0 0.04,0 0.07,0 0.1,0 m -709.9,0 c -0.03,0 -0.07,0 -0.1,0 0.03,0 0.07,0 0.1,0"
           style="fill:#a273ba;fill-opacity:1;fill-rule:nonzero;stroke:none"
           id="path42" />
        <path
           d="m 2328.85,6682.01 c 0,-31.96 -25.91,-57.86 -57.87,-57.86 H 937.555 c -31.965,0 -57.871,25.9 -57.871,57.86 0,31.96 25.906,57.87 57.871,57.87 H 2270.98 c 31.96,0 57.87,-25.91 57.87,-57.87"
           style="fill:#d7a941;fill-opacity:1;fill-rule:nonzero;stroke:none"
           id="path44" />
        <path
           d="m 2328.85,6682.01 c 0,0.12 0,0.24 0,0.36 0,-0.12 0,-0.24 0,-0.36"
           style="fill:#87659e;fill-opacity:1;fill-rule:nonzero;stroke:none"
           id="path46" />
        <path
           d="m 879.684,6682.01 c 0,0.12 0,0.24 0,0.36 0,-0.12 0,-0.24 0,-0.36"
           style="fill:#996eb0;fill-opacity:1;fill-rule:nonzero;stroke:none"
           id="path48" />
        <path
           d="m 2270.98,6624.15 h -57.66 v 42.89 h 57.66 c 24.38,0 45.19,15.09 53.72,36.42 2.61,-6.54 4.1,-13.64 4.15,-21.09 0,-0.12 0,-0.24 0,-0.36 v 0 c 0,-31.96 -25.91,-57.86 -57.87,-57.86 m -199,0 h -0.01 v 42.89 h 0.01 v -42.89 m -381.01,0 h -328.9 v 42.89 h 371.23 c -17.7,-10.19 -32.37,-25.05 -42.33,-42.89 m -709.896,0 h -43.519 c -31.965,0 -57.871,25.9 -57.871,57.86 v 0 c 0,0.12 0,0.24 0,0.36 0.046,7.45 1.539,14.55 4.156,21.09 8.523,-21.33 29.332,-36.42 53.715,-36.42 h 57.668 v -22.97 c -5.403,-6.09 -10.153,-12.77 -14.149,-19.92 m 865.386,42.42 c -0.27,0.16 -0.53,0.31 -0.8,0.47 h 0.8 v -0.47"
           style="fill:#b28d39;fill-opacity:1;fill-rule:nonzero;stroke:none"
           id="path50" />
        <path
           d="m 1362.07,6495.79 c 0,-62.27 -50.48,-112.76 -112.76,-112.76 -62.27,0 -112.75,50.49 -112.75,112.76 v 372.44 c 0,62.28 50.48,112.76 112.75,112.76 62.28,0 112.76,-50.48 112.76,-112.76 v -372.44"
           style="fill:#2c2a2d;fill-opacity:1;fill-rule:nonzero;stroke:none"
           id="path52" />
        <path
           d="m 1347.83,6440.89 h -155.49 v 49.2 c 16.72,-9.81 36.19,-15.43 56.97,-15.43 62.28,0 112.76,50.48 112.76,112.75 v -91.62 c 0,-19.93 -5.17,-38.65 -14.24,-54.9"
           style="fill:#252427;fill-opacity:1;fill-rule:nonzero;stroke:none"
           id="path54" />
        <path
           d="m 1136.56,6565.29 c 0,-39.04 -31.63,-70.68 -70.67,-70.68 -39.02,0 -70.667,31.64 -70.667,70.68 v 233.44 c 0,39.03 31.647,70.68 70.667,70.68 39.04,0 70.67,-31.65 70.67,-70.68 v -233.44"
           style="fill:#1c1a1c;fill-opacity:1;fill-rule:nonzero;stroke:none"
           id="path56" />
        <path
           d="m 995.223,6644.07 v 12.84 c 0,-4 0.336,-7.93 0.976,-11.76 -0.328,-0.36 -0.652,-0.72 -0.976,-1.08"
           style="fill:#191819;fill-opacity:1;fill-rule:nonzero;stroke:none"
           id="path58" />
        <path
           d="m 2213.32,6565.29 c 0,-39.04 -31.65,-70.68 -70.68,-70.68 -39.04,0 -70.66,31.64 -70.66,70.68 v 233.44 c 0,39.03 31.62,70.68 70.66,70.68 39.03,0 70.68,-31.65 70.68,-70.68 v -233.44"
           style="fill:#1c1a1c;fill-opacity:1;fill-rule:nonzero;stroke:none"
           id="path60" />
        <path
           d="m 2142.64,6494.61 c -39.04,0 -70.66,31.64 -70.66,70.68 v 91.62 c 0,-39.03 31.62,-70.67 70.66,-70.67 39.03,0 70.68,31.64 70.68,70.67 v -32.76 -58.86 c 0,-39.04 -31.65,-70.68 -70.68,-70.68"
           style="fill:#191819;fill-opacity:1;fill-rule:nonzero;stroke:none"
           id="path62" />
        <path
           d="m 2071.97,6495.79 c 0,-62.27 -50.48,-112.76 -112.76,-112.76 -62.27,0 -112.75,50.49 -112.75,112.76 v 372.44 c 0,62.28 50.48,112.76 112.75,112.76 62.28,0 112.76,-50.48 112.76,-112.76 v -372.44"
           style="fill:#2c2a2d;fill-opacity:1;fill-rule:nonzero;stroke:none"
           id="path64" />
        <path
           d="m 2057.73,6440.89 h -14.15 v 58.86 c 0,4.01 -0.33,7.94 -0.98,11.77 18.25,20.03 29.37,46.66 29.37,75.89 v -91.62 c 0,-19.93 -5.17,-38.65 -14.24,-54.9"
           style="fill:#252427;fill-opacity:1;fill-rule:nonzero;stroke:none"
           id="path66" />
        <path
           d="m 2159.12,6383.03 c 0,-31.96 -25.91,-57.87 -57.88,-57.87 H 767.816 c -31.953,0 -57.859,25.91 -57.859,57.87 0,31.95 25.906,57.86 57.859,57.86 H 2101.24 c 31.97,0 57.88,-25.91 57.88,-57.86"
           style="fill:#fbc447;fill-opacity:1;fill-rule:nonzero;stroke:none"
           id="path68" />
        <path
           d="m 2159.12,6383.03 c 0,0.13 0,0.25 0,0.37 0,-0.12 0,-0.24 0,-0.37"
           style="fill:#87659e;fill-opacity:1;fill-rule:nonzero;stroke:none"
           id="path70" />
        <path
           d="m 2101.24,6325.16 h -57.66 v 44.33 h 57.66 c 24.12,0 44.76,14.75 53.47,35.7 2.78,-6.71 4.36,-14.07 4.41,-21.79 0,-0.12 0,-0.24 0,-0.37 v 0 c 0,-31.96 -25.91,-57.87 -57.88,-57.87 m -424.51,0 h -484.39 v 44.33 h 484.39 v -44.33 m -851.238,0 h -57.676 c -31.953,0 -57.859,25.91 -57.859,57.87 0,7.85 1.582,15.34 4.418,22.16 8.695,-20.95 29.34,-35.7 53.441,-35.7 h 57.676 v -44.33"
           style="fill:#cfa540;fill-opacity:1;fill-rule:nonzero;stroke:none"
           id="path72" />
        <path
           d="m 1192.34,6196.81 c 0,-62.28 -50.48,-112.76 -112.76,-112.76 -62.27,0 -112.748,50.48 -112.748,112.76 v 372.44 c 0,62.27 50.478,112.76 112.748,112.76 62.28,0 112.76,-50.49 112.76,-112.76 v -372.44"
           style="fill:#454448;fill-opacity:1;fill-rule:nonzero;stroke:none"
           id="path74" />
        <path
           d="m 1079.58,6084.05 c -62.27,0 -112.748,50.48 -112.748,112.76 v 69.5 0 22.12 c 0,-62.27 50.478,-112.75 112.748,-112.75 62.28,0 112.76,50.48 112.76,112.75 v -91.62 c 0,-62.28 -50.48,-112.76 -112.76,-112.76"
           style="fill:#39383c;fill-opacity:1;fill-rule:nonzero;stroke:none"
           id="path76" />
        <path
           d="m 966.832,6266.31 c 0,-39.04 -31.637,-70.68 -70.672,-70.68 -39.027,0 -70.668,31.64 -70.668,70.68 v 233.44 c 0,39.03 31.641,70.67 70.668,70.67 39.035,0 70.672,-31.64 70.672,-70.67 v -233.44"
           style="fill:#323134;fill-opacity:1;fill-rule:nonzero;stroke:none"
           id="path78" />
        <path
           d="m 896.16,6195.63 c -39.027,0 -70.668,31.64 -70.668,70.68 v 91.62 c 0,-39.03 31.641,-70.67 70.668,-70.67 39.035,0 70.672,31.64 70.672,70.67 v -69.5 -22.12 0 c 0,-39.04 -31.637,-70.68 -70.672,-70.68"
           style="fill:#2c2c2e;fill-opacity:1;fill-rule:nonzero;stroke:none"
           id="path80" />
        <path
           d="m 2043.58,6266.31 c 0,-39.04 -31.64,-70.68 -70.67,-70.68 -39.04,0 -70.67,31.64 -70.67,70.68 v 233.44 c 0,39.03 31.63,70.67 70.67,70.67 39.03,0 70.67,-31.64 70.67,-70.67 v -233.44"
           style="fill:#323134;fill-opacity:1;fill-rule:nonzero;stroke:none"
           id="path82" />
        <path
           d="m 1972.91,6195.63 c -39.04,0 -70.67,31.64 -70.67,70.68 v 22.12 0 69.5 c 0,-39.03 31.63,-70.67 70.67,-70.67 39.03,0 70.67,31.64 70.67,70.67 v -32.77 -58.85 c 0,-39.04 -31.64,-70.68 -70.67,-70.68"
           style="fill:#2c2c2e;fill-opacity:1;fill-rule:nonzero;stroke:none"
           id="path84" />
        <path
           d="m 1902.24,6196.81 c 0,-62.28 -50.48,-112.76 -112.76,-112.76 -62.27,0 -112.75,50.48 -112.75,112.76 v 372.44 c 0,62.27 50.48,112.76 112.75,112.76 62.28,0 112.76,-50.49 112.76,-112.76 v -372.44"
           style="fill:#454448;fill-opacity:1;fill-rule:nonzero;stroke:none"
           id="path86" />
        <path
           d="m 1789.48,6084.05 c -62.27,0 -112.75,50.48 -112.75,112.76 v 91.62 c 0,-62.27 50.48,-112.75 112.75,-112.75 62.28,0 112.76,50.48 112.76,112.75 v -22.12 -69.5 c 0,-62.28 -50.48,-112.76 -112.76,-112.76"
           style="fill:#39383c;fill-opacity:1;fill-rule:nonzero;stroke:none"
           id="path88" />
      </g>
    </g>
  </g>
</svg>
