<?xml version="1.0" encoding="UTF-8" standalone="no"?>
<svg
   xmlns:dc="http://purl.org/dc/elements/1.1/"
   xmlns:cc="http://creativecommons.org/ns#"
   xmlns:rdf="http://www.w3.org/1999/02/22-rdf-syntax-ns#"
   xmlns:svg="http://www.w3.org/2000/svg"
   xmlns="http://www.w3.org/2000/svg"
   width="81.648972mm"
   height="81.648689mm"
   viewBox="0 0 81.648972 81.648689"
   version="1.1"
   id="svg2811">
  <defs
     id="defs2805">
    <clipPath
       clipPathUnits="userSpaceOnUse"
       id="clipPath262">
      <path
         d="m 2696.49,1667.01 c 0,-639.12 -518.11,-1157.221 -1157.23,-1157.221 -639.123,0 -1157.229,518.101 -1157.229,1157.221 0,639.12 518.106,1157.23 1157.229,1157.23 639.12,0 1157.23,-518.11 1157.23,-1157.23"
         id="path260" />
    </clipPath>
  </defs>
  <metadata
     id="metadata2808">
    <rdf:RDF>
      <cc:Work
         rdf:about="">
        <dc:format>image/svg+xml</dc:format>
        <dc:type
           rdf:resource="http://purl.org/dc/dcmitype/StillImage" />
        <dc:title></dc:title>
      </cc:Work>
    </rdf:RDF>
  </metadata>
  <g
     id="layer1"
     transform="translate(-52.157657,-72.568513)">
    <path
       d="m 133.80663,113.39301 c 0,22.54674 -18.27777,40.82419 -40.824506,40.82419 -22.546839,0 -40.824467,-18.27745 -40.824467,-40.82419 0,-22.546728 18.277628,-40.824497 40.824467,-40.824497 22.546736,0 40.824506,18.277769 40.824506,40.824497"
       style="fill:#74d2ec;fill-opacity:1;fill-rule:nonzero;stroke:none;stroke-width:0.0352778"
       id="path28" />
    <g
       id="g256"
       transform="matrix(0.03527778,0,0,-0.03527778,38.680453,172.20142)">
      <g
         id="g258"
         clip-path="url(#clipPath262)">
        <path
           d="m 1578.71,510.441 c -1.38,1.289 -2.71,2.629 -4,4 -1.37,1.289 -2.7,2.629 -4,4.008 -1.37,1.293 -2.7,2.621 -4,4 -1.37,1.293 -2.7,2.633 -4,4.012 -1.37,1.277 -2.7,2.621 -3.99,4 -1.38,1.289 -2.71,2.629 -4,4 -1.38,1.289 -2.71,2.629 -4,4.008 -1.38,1.293 -2.71,2.621 -4,4 -1.38,1.293 -2.71,2.633 -4,4.011 -1.38,1.282 -2.71,2.622 -4,4 -1.38,1.29 -2.71,2.629 -4,4 -1.38,1.29 -2.7,2.629 -4,4.012 -1.38,1.289 -2.7,2.617 -4,4 -1.37,1.289 -2.7,2.629 -4,3.996 -1.37,1.293 -2.7,2.633 -4,4.012 -1.37,1.289 -2.7,2.621 -3.99,4 -1.38,1.289 -2.71,2.629 -4,4.012 -1.38,1.277 -2.71,2.617 -4,4 -1.38,1.289 -2.71,2.629 -4,4 -1.38,1.289 -2.7,2.629 -4,4.008 -1.38,1.293 -2.7,2.621 -4,4 -1.38,1.289 -2.7,2.632 -4,4.011 -1.37,1.278 -2.7,2.617 -4,4 -1.37,1.289 -2.7,2.629 -4,4 -1.37,1.289 -2.7,2.629 -3.99,4.008 -1.38,1.293 -2.71,2.621 -4,4 -1.38,1.293 -2.71,2.633 -4,4.012 -1.38,1.277 -2.71,2.621 -4,4 -1.38,1.289 -2.71,2.629 -4,4 -1.38,1.289 -2.71,2.629 -4,4.012 -1.38,1.289 -2.71,2.617 -4,3.996 -1.38,1.293 -2.7,2.632 -4,4.011 -1.38,1.282 -2.7,2.621 -4,4 -1.38,1.289 -2.7,2.621 -4,4 -1.37,1.289 -2.7,2.629 -3.99,4.012 -1.38,1.277 -2.71,2.617 -4,4 -1.38,1.289 -2.71,2.629 -4,3.996 -1.38,1.293 -2.71,2.633 -4,4.012 -1.38,1.289 -2.71,2.621 -4,4 -1.38,1.289 -2.71,2.629 -4,4.012 -1.38,1.277 -2.7,2.617 -4,4 -1.38,1.289 -2.7,2.628 -4,4 -1.37,1.289 -2.7,2.628 -4,4.007 -1.37,1.293 -2.7,2.621 -4,4 -1.37,1.289 -2.7,2.633 -4,4.012 -1.37,1.277 -2.7,2.617 -3.99,4 -1.38,1.289 -2.71,2.629 -4,4 -1.38,1.289 -2.71,2.629 -4,4.008 -1.38,1.293 -2.71,2.633 -4,4 -1.38,1.293 -2.71,2.633 -4,4.012 -1.38,1.289 -2.71,2.621 -4,4 -1.38,1.289 -2.71,2.629 -4,4 -1.38,1.289 -2.7,2.629 -4,4.011 -1.38,1.278 -2.7,2.618 -4,3.996 -1.37,1.293 -2.7,2.633 -3.99,4 -1.38,1.293 -2.71,2.633 -4,4.012 -1.38,1.289 -2.71,2.621 -4,4 -1.38,1.289 -2.71,2.629 -4,4.012 -1.38,1.289 -2.71,2.617 -4,4 -1.38,1.289 -2.71,2.629 -4,4 -1.38,1.289 -2.71,2.629 -4,4.008 -1.38,1.289 -2.7,2.621 -4,4 -1.38,1.289 -2.7,2.629 -4,4.011 -1.37,1.289 -2.7,2.618 -4,4 -1.37,1.289 -2.7,2.629 -4,4 -1.37,1.289 -2.7,2.629 -3.99,4.008 -1.38,1.293 -2.71,2.621 -4,4 -1.38,1.293 -2.71,2.633 -4,4.012 -1.38,1.289 -2.71,2.621 -4,4 -1.38,1.289 -2.71,2.629 -4,4 -1.38,1.289 -2.71,2.629 -4,4.008 -1.38,1.293 -2.71,2.621 -4,4 -1.38,1.293 -2.71,2.633 -4,4 -1.38,1.293 -2.7,2.633 -4,4.011 -1.37,1.29 -2.7,2.622 -3.99,4 -1.38,1.29 -2.71,2.629 -4,4.012 -1.38,1.278 -2.71,2.617 -4,4 -1.38,1.289 -2.71,2.629 -4,3.996 -1.38,1.293 -2.71,2.633 -4,4.012 -1.38,1.289 -2.71,2.621 -4,4 -1.38,1.289 -2.71,2.629 -4,4.012 -1.38,1.289 -2.7,2.617 -4,4 -1.38,1.289 -2.7,2.629 -4,4 -1.38,1.289 -2.7,2.629 -4,4.008 -1.37,1.293 -2.7,2.628 -4,4 -1.37,1.289 -2.7,2.632 -4,4.011 -1.37,1.289 -2.7,2.617 -3.99,4 -1.38,1.289 -2.71,2.629 -4,4 -1.38,1.289 -2.71,2.629 -4,4.008 -1.38,1.293 -2.71,2.633 -4,4 -1.38,1.293 -2.71,2.633 -4,4.012 -1.38,1.277 -2.71,2.621 -4,4 -1.38,1.289 -2.71,2.629 -4,4 -1.37,1.289 -2.7,2.629 -4,4.012 -1.37,1.289 -2.7,2.617 -4,3.996 -1.37,1.293 -2.7,2.632 -3.99,4 -1.38,1.293 -2.71,2.632 -4,4.011 -1.38,1.289 -2.71,2.629 -4,4 -1.38,1.289 -2.71,2.629 -4,4.012 -1.38,1.289 -2.71,2.617 -4,4 -1.38,1.289 -2.71,2.629 -4,3.996 -1.38,1.293 -2.71,2.633 -4,4.012 -1.38,1.289 -2.7,2.629 -4,4 -1.38,1.289 -2.7,2.629 -4,4.012 -1.37,1.289 -2.7,2.617 -4,4 -1.37,1.289 -2.7,2.628 -4,4 -1.37,1.289 -2.7,2.628 -4,4.007 -1.37,1.293 -2.7,2.629 -3.99,4 -1.38,1.289 -2.71,2.633 -4,4.012 -1.38,1.289 -2.71,2.617 -4,4 -1.38,1.289 -2.71,2.629 -4,4 -1.38,1.289 -2.71,2.629 -4,4.008 -1.38,1.293 -2.7,2.621 -4,4 -1.37,1.293 -2.7,2.633 -4,4 -1.37,1.293 -2.7,2.633 -4,4.012 -1.37,1.289 -2.7,2.629 -4,4 -1.37,1.289 -2.7,2.629 -3.99,4.011 -1.38,1.289 -2.71,2.618 -4,3.996 -1.38,1.293 -2.71,2.633 -4,4 -1.38,1.293 -2.71,2.633 -4,4.012 -17.46,16.41 -28.42,39.64 -28.42,65.49 0,34.26 19.15,64.02 47.33,79.22 -1.66,11.7 -1.42,21.28 -1.65,25.49 -9,164.89 -78.06,244.91 -82.23,329.76 -1.23,24.94 1.51,39.85 6.75,48.19 19.94,31.79 65.71,62.02 131.15,85.72 l -99.85,330.42 33.98,259.64 -2.21,2.33 c -1.51,1.17 -2.81,2.54 -4,4 -1.51,1.17 -2.81,2.54 -4,4.01 -1.51,1.17 -2.81,2.53 -4,4 -1.5,1.17 -2.81,2.54 -3.99,4 -1.51,1.18 -2.82,2.54 -4,4.01 -1.51,1.17 -2.82,2.54 -4,4 -1.51,1.17 -2.82,2.54 -4,4.01 -1.51,1.17 -2.81,2.53 -4,4 -1.51,1.17 -2.81,2.54 -4,4 -1.51,1.18 -2.81,2.54 -4,4.01 -1.51,1.17 -2.81,2.54 -4,4 -1.51,1.17 -2.81,2.54 -4,4.01 -1.51,1.17 -2.81,2.54 -4,4 -1.5,1.17 -2.81,2.54 -3.99,4 -1.51,1.18 -2.82,2.54 -4,4.01 -1.51,1.17 -2.82,2.54 -4,4 -1.51,1.17 -2.81,2.54 -4,4 -1.51,1.18 -2.81,2.54 -4,4.01 -1.51,1.17 -2.81,2.54 -4,4 -1.51,1.17 -2.81,2.54 -4,4.01 -1.51,1.17 -2.81,2.54 -4,4 -1.51,1.17 -2.81,2.54 -4,4 -1.51,1.18 -2.81,2.54 -4,4.01 -1.5,1.17 -2.81,2.54 -4,4 -1.5,1.17 -2.81,2.54 -3.99,4.01 -1.51,1.17 -2.82,2.54 -4.003,4 -1.508,1.17 -2.812,2.54 -4,4 -1.508,1.18 -2.812,2.54 -4,4.01 -1.508,1.17 -2.812,2.54 -3.996,4 -1.512,1.17 -2.813,2.54 -4,4.01 -1.512,1.17 -2.813,2.54 -4,4 -1.508,1.17 -2.813,2.54 -4,4 -1.508,1.18 -2.809,2.54 -3.996,4.01 -1.508,1.17 -2.813,2.54 -4,4 -1.508,1.17 -2.813,2.54 -3.996,4 -1.512,1.18 -2.817,2.54 -4,4.01 -1.508,1.17 -2.813,2.54 -4,4 -1.508,1.17 -2.813,2.54 -4,4.01 -1.508,1.17 -2.813,2.53 -4,4 -1.508,1.17 -2.813,2.54 -3.996,4 -1.512,1.18 -2.817,2.54 -4,4.01 -1.508,1.17 -2.813,2.54 -4,4 -1.508,1.17 -2.813,2.54 -4,4.01 -1.508,1.17 -2.813,2.53 -4,4 -1.508,1.17 -2.813,2.54 -3.996,4 -1.512,1.18 -2.813,2.54 -4,4.01 -1.508,1.17 -2.813,2.54 -4,4 -1.508,1.17 -2.813,2.54 -4,4.01 -1.508,1.17 -2.813,2.54 -3.997,4 -1.511,1.17 -2.812,2.54 -4,4 -1.507,1.18 -2.812,2.54 -4,4.01 -1.507,1.17 -2.812,2.54 -4,4 -1.503,1.17 -2.808,2.54 -3.996,4.01 -1.507,1.17 -2.812,2.54 -4,4 -1.507,1.17 -2.812,2.54 -4,4 -1.507,1.17 -2.808,2.54 -3.996,4.01 -7.613,5.89 -11.394,15.96 -8.797,25.86 2.926,11.11 12.954,18.47 23.93,18.47 2.078,0 4.192,-0.27 6.297,-0.82 l 306.072,-80.4 c 5.29,-1.38 9.66,-4.42 12.86,-8.37 1.51,-1.16 2.81,-2.54 4,-4 1.51,-1.16 2.81,-2.54 4,-4.01 1.51,-1.16 2.81,-2.53 4,-4 1.51,-1.16 2.81,-2.54 4,-4 1.51,-1.16 2.81,-2.54 4,-4.01 1.51,-1.16 2.81,-2.54 4,-4 1.51,-1.16 2.81,-2.54 4,-4.01 1.5,-1.16 2.81,-2.53 3.99,-4 1.51,-1.16 2.82,-2.54 4,-4 1.51,-1.17 2.82,-2.54 4,-4.01 1.51,-1.16 2.82,-2.53 4,-4 1.51,-1.16 2.81,-2.54 4,-4 1.51,-1.16 2.81,-2.54 4,-4.01 1.51,-1.16 2.81,-2.54 4,-4 1.51,-1.16 2.81,-2.54 4,-4 1.51,-1.17 2.81,-2.54 4,-4.01 1.5,-1.16 2.81,-2.54 3.99,-4 1.51,-1.17 2.82,-2.54 4,-4.01 1.51,-1.16 2.82,-2.54 4,-4 1.51,-1.16 2.82,-2.54 4,-4 1.51,-1.17 2.81,-2.54 4,-4.01 1.51,-1.16 2.81,-2.54 4,-4 1.51,-1.17 2.81,-2.54 4,-4.01 1.51,-1.16 2.81,-2.54 4,-4 1.51,-1.16 2.81,-2.54 4,-4 1.51,-1.17 2.81,-2.54 4,-4.01 1.51,-1.16 2.81,-2.54 4,-4 1.51,-1.17 2.81,-2.54 4,-4.01 1.5,-1.16 2.81,-2.54 3.99,-4 1.51,-1.16 2.82,-2.54 4,-4 1.51,-1.17 2.82,-2.54 4,-4.01 1.51,-1.16 2.82,-2.54 4,-4 1.51,-1.16 2.81,-2.54 4,-4 1.51,-1.17 2.81,-2.54 4,-4.01 1.51,-1.16 2.81,-2.54 4,-4 1.51,-1.17 2.81,-2.54 4,-4.01 1.5,-1.16 2.81,-2.54 4,-4 1.5,-1.16 2.81,-2.54 3.99,-4.01 1.51,-1.16 2.82,-2.53 4,-4 1.51,-1.16 2.82,-2.54 4,-4 1.51,-1.17 2.82,-2.54 4,-4.01 1.51,-1.16 2.81,-2.54 4,-4 1.51,-1.16 2.81,-2.54 4,-4.01 1.51,-1.16 2.81,-2.53 4,-4 1.51,-1.16 2.81,-2.54 4,-4 1.51,-1.17 2.81,-2.54 4,-4.01 1.51,-1.16 2.81,-2.54 4,-4 1.51,-1.16 2.81,-2.54 4,-4.01 1.5,-1.16 2.81,-2.53 3.99,-4 1.51,-1.16 2.82,-2.54 4,-4 1.51,-1.16 2.82,-2.54 4,-4.01 1.51,-1.16 2.82,-2.53 4,-4 1.51,-1.16 2.82,-2.54 4,-4 1.51,-1.17 2.81,-2.54 4,-4.01 1.51,-1.16 2.81,-2.54 4,-4 1.51,-1.16 2.81,-2.54 4,-4.01 1.51,-1.16 2.81,-2.53 4,-4 1.5,-1.16 2.81,-2.54 3.99,-4 1.51,-1.17 2.82,-2.54 4,-4.01 1.51,-1.16 2.82,-2.54 4,-4 1.51,-1.16 2.82,-2.54 4,-4.01 1.51,-1.16 2.82,-2.53 4,-4 1.51,-1.16 2.81,-2.54 4,-4 1.51,-1.17 2.81,-2.54 4,-4.01 1.51,-1.16 2.81,-2.54 4,-4 1.51,-1.16 2.81,-2.54 4,-4.01 1.51,-1.16 2.81,-2.53 4,-4 1.51,-1.16 2.81,-2.54 4,-4 1.51,-1.17 2.81,-2.54 4,-4.01 1.5,-1.16 2.81,-2.53 3.99,-4 1.51,-1.16 2.82,-2.54 4,-4 1.51,-1.17 2.82,-2.54 4,-4.01 1.51,-1.16 2.82,-2.54 4,-4 1.51,-1.16 2.81,-2.54 4,-4.01 1.51,-1.16 2.81,-2.53 4,-4 1.51,-1.16 2.81,-2.54 4,-4 1.51,-1.17 2.81,-2.54 4,-4.01 1.51,-1.16 2.81,-2.54 4,-4 1.5,-1.16 2.81,-2.54 3.99,-4.01 1.51,-1.16 2.82,-2.53 4,-4 1.51,-1.16 2.82,-2.54 4,-4 1.51,-1.17 2.82,-2.54 4,-4.01 1.51,-1.16 2.81,-2.54 4,-4 1.51,-1.16 2.81,-2.54 4,-4.01 1.51,-1.16 2.81,-2.53 4,-4 1.51,-1.16 2.81,-2.54 4,-4 1.51,-1.17 2.81,-2.54 4,-4.01 1.51,-1.16 2.81,-2.54 4,-4 1.51,-1.16 2.81,-2.54 4,-4 1.51,-1.17 2.81,-2.54 4,-4.01 1.5,-1.16 2.81,-2.54 3.99,-4 1.51,-1.16 2.82,-2.54 4,-4.01 1.51,-1.16 2.82,-2.53 4,-4 1.51,-1.16 2.82,-2.54 4,-4 1.51,-1.17 2.81,-2.54 4,-4.01 1.51,-1.16 2.81,-2.54 4,-4 1.51,-1.16 2.81,-2.54 4,-4.01 1.51,-1.16 2.81,-2.53 4,-4 1.5,-1.16 2.81,-2.54 4,-4 1.5,-1.17 2.81,-2.54 3.99,-4.01 1.51,-1.16 2.82,-2.54 4,-4 1.51,-1.16 2.82,-2.54 4,-4.01 1.51,-1.16 2.82,-2.53 4,-4 1.51,-1.16 2.81,-2.54 4,-4 1.51,-1.17 2.81,-2.54 4,-4.01 1.51,-1.16 2.81,-2.54 4,-4 1.51,-1.16 2.81,-2.54 4,-4.01 1.51,-1.16 2.81,-2.53 4,-4 1.51,-1.16 2.81,-2.54 4,-4 1.51,-1.16 2.81,-2.54 4,-4.01 1.5,-1.16 2.81,-2.53 3.99,-4 1.51,-1.16 2.82,-2.54 4,-4 1.51,-1.17 2.82,-2.54 4,-4.01 1.51,-1.16 2.81,-2.54 4,-4 1.51,-1.16 2.81,-2.54 4,-4.01 1.51,-1.16 2.81,-2.53 4,-4 1.51,-1.16 2.81,-2.54 4,-4 1.51,-1.17 2.81,-2.54 4,-4.01 1.51,-1.16 2.81,-2.54 4,-4 1.5,-1.16 2.81,-2.54 3.99,-4.01 1.51,-1.16 2.82,-2.54 4,-4 1.51,-1.16 2.82,-2.54 4,-4 1.51,-1.17 2.82,-2.54 4,-4.01 1.51,-1.16 2.81,-2.54 4,-4 1.51,-1.16 2.81,-2.54 4,-4.01 1.51,-1.16 2.81,-2.54 4,-4 1.51,-1.16 2.81,-2.54 4,-4 1.51,-1.16 2.81,-2.54 4,-4.01 1.51,-1.16 2.81,-2.54 4,-4 1.51,-1.16 2.81,-2.54 4,-4 1.51,-1.17 2.81,-2.54 4,-4.01 1.5,-1.16 2.81,-2.54 3.99,-4 1.51,-1.16 2.82,-2.54 4,-4.01 1.51,-1.16 2.81,-2.54 4,-4 1.51,-1.16 2.81,-2.54 4,-4 1.51,-1.17 2.81,-2.54 4,-4.01 1.51,-1.16 2.81,-2.54 4,-4 1.51,-1.16 2.81,-2.54 4,-4.01 1.51,-1.16 2.81,-2.54 4,-4 1.51,-1.16 2.81,-2.54 4,-4 1.5,-1.17 2.81,-2.54 3.99,-4.01 1.51,-1.16 2.82,-2.54 4,-4 1.51,-1.16 2.82,-2.54 4,-4.01 1.51,-1.16 2.82,-2.54 4,-4 1.42,-1.09 2.66,-2.36 3.8,-3.72 l 7.73,25.58 -1.75,2.02 c -1.45,1.27 -2.81,2.57 -4,4 -1.45,1.27 -2.81,2.57 -4,4.01 -1.45,1.27 -2.81,2.56 -4,4 -1.45,1.27 -2.81,2.57 -4,4 -1.44,1.27 -2.81,2.57 -4,4.01 -1.44,1.27 -2.81,2.57 -4,4 -1.44,1.27 -2.81,2.57 -4,4.01 -1.44,1.27 -2.81,2.56 -4,4 -1.44,1.27 -2.81,2.57 -3.99,4 -1.45,1.27 -2.82,2.57 -4,4.01 -1.45,1.27 -2.82,2.57 -4,4 -1.45,1.27 -2.82,2.57 -4,4 -1.45,1.27 -2.81,2.57 -4,4.01 -1.45,1.27 -2.81,2.57 -4,4 -1.44,1.27 -2.81,2.57 -4,4.01 -1.44,1.26 -2.81,2.56 -4,4 -1.44,1.27 -2.81,2.57 -4,4 -1.44,1.27 -2.81,2.57 -3.99,4.01 -1.45,1.27 -2.82,2.57 -4,4 -1.45,1.27 -2.82,2.57 -4,4.01 -1.45,1.26 -2.82,2.56 -4,4 -1.45,1.27 -2.81,2.57 -4,4 -1.45,1.27 -2.81,2.57 -4,4.01 -1.45,1.27 -2.81,2.57 -4,4 -1.44,1.27 -2.81,2.57 -4,4.01 -1.44,1.27 -2.81,2.56 -4,4 -1.44,1.27 -2.81,2.57 -4,4 -1.44,1.27 -2.81,2.57 -4,4.01 -1.44,1.27 -2.81,2.57 -4,4 -1.44,1.27 -2.81,2.57 -3.99,4.01 -1.45,1.27 -2.82,2.56 -4,4 -1.45,1.27 -2.82,2.57 -4,4 -6.99,6.14 -11.25,14.21 -11.25,22.94 0,28.58 21.73,39.8 50.31,39.8 h 248.86 c 15.32,0 28.93,-6.78 38.4,-17.36 1.42,-1.27 2.74,-2.59 4,-4 1.41,-1.27 2.73,-2.6 4,-4 1.42,-1.27 2.73,-2.6 4,-4.01 1.41,-1.27 2.73,-2.6 4,-4 1.41,-1.27 2.73,-2.6 4,-4.01 1.41,-1.27 2.73,-2.59 4,-4 1.41,-1.27 2.73,-2.6 4,-4 1.41,-1.27 2.73,-2.6 3.99,-4.01 1.42,-1.27 2.74,-2.6 4,-4 1.41,-1.27 2.74,-2.6 4,-4.01 1.42,-1.27 2.74,-2.59 4,-4 1.41,-1.27 2.74,-2.6 4,-4 1.42,-1.27 2.74,-2.6 4,-4.01 1.41,-1.27 2.73,-2.59 4,-4 1.42,-1.27 2.73,-2.6 4,-4 1.41,-1.27 2.73,-2.6 3.99,-4.01 1.42,-1.27 2.74,-2.6 4,-4 1.42,-1.27 2.74,-2.6 4,-4.01 1.42,-1.27 2.74,-2.59 4,-4 1.41,-1.27 2.74,-2.6 4,-4 1.42,-1.27 2.74,-2.6 4,-4.01 1.41,-1.27 2.74,-2.6 4,-4 1.42,-1.27 2.73,-2.6 4,-4.01 1.41,-1.27 2.73,-2.59 4,-4 1.41,-1.27 2.73,-2.6 4,-4 1.41,-1.27 2.73,-2.6 4,-4.01 1.41,-1.27 2.73,-2.6 4,-4 1.41,-1.27 2.73,-2.6 3.99,-4.01 1.42,-1.27 2.74,-2.59 4,-4 1.42,-1.27 2.74,-2.6 4,-4 1.42,-1.27 2.74,-2.6 4,-4.01 1.41,-1.27 2.74,-2.6 4,-4 1.42,-1.27 2.74,-2.6 4,-4 1.41,-1.27 2.74,-2.6 4,-4.01 1.41,-1.27 2.73,-2.6 4,-4 1.41,-1.27 2.73,-2.6 4,-4.01 1.41,-1.27 2.73,-2.59 3.99,-4 1.42,-1.27 2.74,-2.6 4,-4 1.42,-1.27 2.74,-2.6 4,-4.01 1.41,-1.27 2.74,-2.6 4,-4 1.42,-1.27 2.74,-2.6 4,-4.01 1.41,-1.27 2.74,-2.59 4,-4 1.42,-1.27 2.73,-2.6 4,-4 1.41,-1.27 2.73,-2.6 4,-4.01 1.41,-1.27 2.73,-2.6 4,-4 1.41,-1.27 2.73,-2.6 4,-4.01 1.41,-1.27 2.73,-2.59 4,-4 1.41,-1.27 2.73,-2.6 4,-4 1.41,-1.27 2.73,-2.6 3.99,-4.01 1.42,-1.27 2.74,-2.6 4,-4 1.42,-1.27 2.74,-2.6 4,-4.01 1.41,-1.27 2.74,-2.59 4,-4 1.42,-1.27 2.74,-2.6 4,-4 1.41,-1.27 2.74,-2.6 4,-4.01 1.41,-1.27 2.73,-2.59 4,-4 1.41,-1.27 2.73,-2.6 4,-4 1.41,-1.27 2.73,-2.6 4,-4.01 1.41,-1.27 2.73,-2.6 3.99,-4 1.42,-1.27 2.74,-2.6 4,-4.01 1.41,-1.27 2.74,-2.59 4,-4 1.42,-1.27 2.74,-2.6 4,-4 1.41,-1.27 2.74,-2.6 4,-4.01 1.42,-1.27 2.74,-2.6 4,-4 1.41,-1.27 2.73,-2.6 4,-4.01 1.42,-1.27 2.73,-2.59 4,-4 1.41,-1.27 2.73,-2.6 4,-4 1.41,-1.27 2.73,-2.6 4,-4.01 1.41,-1.27 2.73,-2.6 4,-4 1.41,-1.27 2.73,-2.6 4,-4.01 1.41,-1.27 2.73,-2.59 3.99,-4 1.42,-1.27 2.74,-2.6 4,-4 1.41,-1.27 2.74,-2.6 4,-4.01 1.42,-1.27 2.74,-2.59 4,-4 1.41,-1.27 2.73,-2.6 4,-4 1.41,-1.27 2.73,-2.6 4,-4.01 1.41,-1.27 2.73,-2.6 4,-4 1.41,-1.27 2.73,-2.6 4,-4.01 1.41,-1.27 2.73,-2.59 3.99,-4 1.42,-1.27 2.74,-2.6 4,-4 1.42,-1.27 2.74,-2.6 4,-4.01 1.42,-1.27 2.74,-2.6 4,-4 1.41,-1.27 2.74,-2.6 4,-4.01 1.42,-1.27 2.74,-2.59 4,-4 1.41,-1.27 2.74,-2.6 4,-4.01 1.42,-1.26 2.73,-2.59 4,-4 1.41,-1.27 2.73,-2.6 4,-4 1.41,-1.27 2.73,-2.6 4,-4.01 1.41,-1.27 2.73,-2.59 4,-4 1.41,-1.27 2.73,-2.6 4,-4.01 1.41,-1.26 2.73,-2.59 3.99,-4 1.42,-1.27 2.74,-2.6 4,-4 1.41,-1.27 2.74,-2.6 4,-4.01 1.42,-1.26 2.74,-2.59 4,-4 1.41,-1.27 2.73,-2.6 4,-4 1.41,-1.27 2.73,-2.6 4,-4.01 1.41,-1.27 2.73,-2.6 4,-4 1.41,-1.27 2.73,-2.6 4,-4.01 1.41,-1.26 2.73,-2.59 4,-4 1.41,-1.27 2.73,-2.6 3.99,-4 1.42,-1.27 2.74,-2.6 4,-4.01 1.42,-1.27 2.74,-2.6 4,-4 1.41,-1.27 2.74,-2.6 4,-4.01 1.42,-1.26 2.74,-2.59 4,-4 1.41,-1.27 2.74,-2.6 4,-4 1.42,-1.27 2.73,-2.6 4,-4.01 1.41,-1.27 2.73,-2.6 4,-4 1.41,-1.27 2.73,-2.6 4,-4.01 1.41,-1.26 2.73,-2.59 4,-4 1.41,-1.27 2.73,-2.6 4,-4 1.41,-1.27 2.73,-2.6 4,-4.01 1.41,-1.26 2.73,-2.59 3.99,-4 1.42,-1.27 2.74,-2.6 4,-4 1.42,-1.27 2.74,-2.6 4,-4.01 1.41,-1.27 2.73,-2.59 4,-4 1.42,-1.27 2.73,-2.6 4,-4 1.41,-1.28 2.73,-2.6 4,-4.01 1.41,-1.27 2.73,-2.6 4,-4 1.41,-1.27 2.73,-2.6 4,-4.01 1.41,-1.27 2.73,-2.59 4,-4 1.41,-1.27 2.73,-2.6 3.99,-4.01 1.42,-1.27 2.74,-2.59 4,-4 1.41,-1.27 2.74,-2.6 4,-4 1.42,-1.27 2.74,-2.6 4,-4.01 1.41,-1.27 2.74,-2.6 4,-4 1.42,-1.27 2.74,-2.6 4,-4.01 1.41,-1.27 2.73,-2.59 4,-4 1.42,-1.27 2.73,-2.6 4,-4 1.41,-1.27 2.73,-2.6 4,-4.01 1.41,-1.27 2.73,-2.6 4,-4 1.41,-1.27 2.73,-2.6 4,-4 1.41,-1.27 2.73,-2.6 3.99,-4.01 1.42,-1.27 2.74,-2.6 4,-4 1.42,-1.27 2.74,-2.6 4,-4.01 1.41,-1.26 2.74,-2.59 4,-4 1.42,-1.27 2.73,-2.6 4,-4 1.41,-1.27 2.73,-2.6 4,-4.01 1.41,-1.27 2.73,-2.6 4,-4 1.41,-1.27 2.73,-2.6 4,-4.01 1.41,-1.26 2.73,-2.59 4,-4 1.41,-1.27 2.73,-2.6 3.99,-4 1.42,-1.27 2.74,-2.6 4,-4.01 1.41,-1.27 2.74,-2.6 4,-4 1.42,-1.27 2.74,-2.6 4,-4.01 1.41,-1.27 2.74,-2.59 4,-4 1.42,-1.27 2.74,-2.6 4,-4 1.41,-1.27 2.73,-2.6 4,-4.01 1.42,-1.27 2.73,-2.6 4,-4 1.41,-1.27 2.73,-2.6 4,-4.01 1.41,-1.27 2.73,-2.59 4,-4 1.41,-1.27 2.73,-2.6 4,-4 1.41,-1.27 2.73,-2.6 4,-4.01 1.4,-1.27 2.73,-2.59 3.99,-4 1.42,-1.27 2.74,-2.6 4,-4 1.41,-1.27 2.74,-2.6 4,-4.01 1.42,-1.27 2.73,-2.6 4,-4 1.41,-1.27 2.73,-2.6 4,-4.01 1.41,-1.27 2.73,-2.59 4,-4 1.41,-1.27 2.73,-2.6 4,-4 1.41,-1.27 2.73,-2.6 4,-4.01 1.41,-1.27 2.73,-2.6 4,-4 1.41,-1.27 2.73,-2.6 3.99,-4.01 1.42,-1.27 2.74,-2.59 4,-4 1.42,-1.27 2.74,-2.6 4,-4 0.16,-0.14 0.31,-0.28 0.46,-0.42 C 2526.46,883.961 2095.54,527.73 1578.71,510.441"
           style="fill:#65c6dc;fill-opacity:1;fill-rule:nonzero;stroke:none"
           id="path264" />
        <path
           d="m 1769.06,1507.05 h -62.6 l 135.41,448.15 h 62.61 l -135.42,-448.15"
           style="fill:#454448;fill-opacity:1;fill-rule:nonzero;stroke:none"
           id="path266" />
        <path
           d="m 1207.33,1507.05 h 62.62 l -135.41,448.15 h -62.63 l 135.42,-448.15"
           style="fill:#454448;fill-opacity:1;fill-rule:nonzero;stroke:none"
           id="path268" />
        <path
           d="m 1134.53,1955.2 h -62.62 l 57.15,436.7 h 62.62 l -57.15,-436.7"
           style="fill:#454448;fill-opacity:1;fill-rule:nonzero;stroke:none"
           id="path270" />
        <path
           d="m 1992.63,1127 c 2.68,7.78 4.52,15.93 5.3,24.41 29.06,154.78 -30.52,321.11 -66.1,387.15 -5.46,10.65 -12.68,20.18 -21.27,28.33 -72.67,68.86 -203.7,106.23 -419.55,106.23 -233.54,0 -405.97,-63.21 -450.4,-134.06 -5.24,-8.34 -7.98,-23.25 -6.75,-48.19 4.17,-84.85 73.23,-164.87 82.23,-329.76 0.85,-15.64 -4.99,-104.71 104.73,-104.71 h 672.88 c 45.66,0 84.38,29.25 98.71,70.01 l 0.04,-0.21 0.18,0.8"
           style="fill:#847d83;fill-opacity:1;fill-rule:nonzero;stroke:none"
           id="path272" />
        <path
           d="m 1974.1,1056.4 c 0,-25.56 -20.72,-46.27 -46.27,-46.27 h -717.14 c -25.55,0 -46.27,20.71 -46.27,46.27 0,25.54 20.72,46.28 46.27,46.28 h 717.14 c 25.55,0 46.27,-20.74 46.27,-46.28"
           style="fill:#2c2a2d;fill-opacity:1;fill-rule:nonzero;stroke:none"
           id="path274" />
        <path
           d="m 1250.33,1056.4 c 0,-49.68 -40.28,-89.959 -89.96,-89.959 -49.69,0 -89.96,40.279 -89.96,89.959 0,49.68 40.27,89.96 89.96,89.96 49.68,0 89.96,-40.28 89.96,-89.96"
           style="fill:#2c2a2d;fill-opacity:1;fill-rule:nonzero;stroke:none"
           id="path276" />
        <path
           d="m 2075.73,1056.4 c 0,-49.68 -40.28,-89.959 -89.96,-89.959 -49.69,0 -89.95,40.279 -89.95,89.959 0,49.68 40.26,89.96 89.95,89.96 49.68,0 89.96,-40.28 89.96,-89.96"
           style="fill:#2c2a2d;fill-opacity:1;fill-rule:nonzero;stroke:none"
           id="path278" />
        <path
           d="m 1666.52,1994.51 c 0,-19.85 21.13,-36.94 49.49,-33.41 60.28,7.49 105.41,26.27 218.54,-41 44.97,-26.74 82.87,33.9 82.87,62.48 0,28.57 -23.15,51.73 -51.73,51.73 h -248.86 c -28.58,0 -50.31,-11.22 -50.31,-39.8"
           style="fill:#847d83;fill-opacity:1;fill-rule:nonzero;stroke:none"
           id="path280" />
        <path
           d="m 1224.89,2374.28 c -3.47,-13.23 -17,-21.13 -30.23,-17.65 l -306.066,80.39 c -13.219,3.48 -21.121,17.01 -17.653,30.23 3.477,13.22 17.008,21.12 30.227,17.65 l 306.072,-80.4 c 13.22,-3.46 21.12,-17 17.65,-30.22"
           style="fill:#2c2a2d;fill-opacity:1;fill-rule:nonzero;stroke:none"
           id="path282" />
        <path
           d="m 1682.61,1364.76 c 0,-114.53 -92.85,-207.38 -207.38,-207.38 -114.53,0 -207.38,92.85 -207.38,207.38 0,114.53 92.85,207.38 207.38,207.38 114.53,0 207.38,-92.85 207.38,-207.38"
           style="fill:#454448;fill-opacity:1;fill-rule:nonzero;stroke:none"
           id="path284" />
        <path
           d="m 1535.26,1364.76 c 0,-33.15 -26.88,-60.03 -60.03,-60.03 -33.16,0 -60.04,26.88 -60.04,60.03 0,33.16 26.88,60.03 60.04,60.03 33.15,0 60.03,-26.87 60.03,-60.03"
           style="fill:#2c2a2d;fill-opacity:1;fill-rule:nonzero;stroke:none"
           id="path286" />
        <path
           d="m 1676.36,1564.61 c 9.38,-9.4 9.38,-24.62 0,-34.01 l -180.19,-180.19 c -9.39,-9.38 -24.62,-9.38 -34.01,0 -9.4,9.38 -9.4,24.62 0,34 l 180.18,180.2 c 9.4,9.38 24.62,9.38 34.02,0"
           style="fill:#2c2a2d;fill-opacity:1;fill-rule:nonzero;stroke:none"
           id="path288" />
        <path
           d="m 1729.58,1561.32 c 0,-13.61 -11.03,-24.63 -24.63,-24.63 h -97.49 c -13.6,0 -24.64,11.02 -24.64,24.63 0,13.6 11.04,24.64 24.64,24.64 h 97.49 c 13.6,0 24.63,-11.04 24.63,-24.64"
           style="fill:#2c2a2d;fill-opacity:1;fill-rule:nonzero;stroke:none"
           id="path290" />
      </g>
    </g>
  </g>
</svg>
