<?xml version="1.0" encoding="UTF-8" standalone="no"?>
<svg
   xmlns:dc="http://purl.org/dc/elements/1.1/"
   xmlns:cc="http://creativecommons.org/ns#"
   xmlns:rdf="http://www.w3.org/1999/02/22-rdf-syntax-ns#"
   xmlns:svg="http://www.w3.org/2000/svg"
   xmlns="http://www.w3.org/2000/svg"
   width="81.648674mm"
   height="81.649002mm"
   viewBox="0 0 81.648674 81.649002"
   version="1.1"
   id="svg1489">
  <defs
     id="defs1483">
    <clipPath
       clipPathUnits="userSpaceOnUse"
       id="clipPath150">
      <path
         d="m 7617.97,6532.99 c 0,-639.12 -518.11,-1157.24 -1157.23,-1157.24 -639.12,0 -1157.22,518.12 -1157.22,1157.24 0,639.11 518.1,1157.22 1157.22,1157.22 639.12,0 1157.23,-518.11 1157.23,-1157.22"
         id="path148" />
    </clipPath>
  </defs>
  <metadata
     id="metadata1486">
    <rdf:RDF>
      <cc:Work
         rdf:about="">
        <dc:format>image/svg+xml</dc:format>
        <dc:type
           rdf:resource="http://purl.org/dc/dcmitype/StillImage" />
        <dc:title></dc:title>
      </cc:Work>
    </rdf:RDF>
  </metadata>
  <g
     id="layer1"
     transform="translate(-129.26496,4.538789)">
    <path
       d="m 210.91362,36.28536 c 0,22.546733 -18.27777,40.824855 -40.82451,40.824855 -22.54673,0 -40.82415,-18.278122 -40.82415,-40.824855 0,-22.54638 18.27742,-40.824149 40.82415,-40.824149 22.54674,0 40.82451,18.277769 40.82451,40.824149"
       style="fill:#ffb380;fill-opacity:1;fill-rule:nonzero;stroke:none;stroke-width:0.0352778"
       id="path20" />
    <path
       d="m 170.08913,77.110204 c -2.99156,0 -5.90691,-0.321733 -8.71573,-0.932392 -0.0455,-0.03916 -0.0871,-0.08184 -0.12559,-0.128058 -0.0519,-0.04269 -0.0988,-0.0896 -0.14146,-0.141111 -0.0515,-0.04269 -0.0984,-0.08961 -0.14111,-0.141111 -0.0519,-0.04269 -0.0984,-0.08961 -0.14147,-0.141111 -0.0515,-0.04269 -0.0984,-0.08961 -0.14111,-0.141111 -0.0515,-0.04269 -0.0984,-0.08961 -0.14111,-0.141112 -0.0519,-0.04269 -0.0984,-0.08925 -0.14146,-0.141111 -0.0515,-0.04269 -0.0984,-0.08925 -0.14111,-0.141111 -0.0515,-0.04233 -0.0984,-0.08925 -0.14112,-0.141111 -0.0519,-0.04233 -0.0988,-0.08925 -0.14146,-0.141111 -0.0515,-0.04233 -0.0984,-0.08925 -0.14111,-0.141111 -0.0519,-0.04233 -0.0984,-0.08925 -0.14146,-0.141111 -0.0515,-0.04233 -0.0984,-0.08925 -0.14112,-0.140759 -0.0515,-0.04269 -0.0984,-0.08961 -0.14111,-0.141111 -0.0519,-0.04269 -0.0988,-0.0896 -0.14146,-0.141111 -0.0515,-0.04269 -0.0984,-0.08961 -0.14111,-0.141111 -0.0519,-0.04269 -0.0984,-0.08961 -0.14147,-0.141111 -0.0515,-0.04233 -0.0984,-0.08925 -0.14111,-0.141111 -0.0515,-0.04233 -0.0984,-0.08925 -0.14111,-0.141111 -0.0519,-0.04233 -0.0988,-0.08925 -0.14146,-0.141111 -0.0515,-0.04233 -0.0984,-0.08925 -0.14111,-0.141112 -0.0519,-0.04233 -0.0988,-0.08925 -0.14147,-0.140758 -0.0515,-0.04269 -0.0984,-0.0896 -0.14111,-0.141111 -0.0515,-0.04269 -0.0984,-0.08961 -0.14111,-0.141111 -0.0519,-0.04269 -0.0988,-0.08961 -0.14146,-0.141111 -0.0515,-0.04269 -0.0984,-0.08961 -0.14111,-0.141111 -0.0515,-0.04269 -0.0984,-0.08961 -0.14111,-0.141111 -0.0519,-0.04269 -0.0988,-0.08925 -0.14147,-0.141112 -0.0515,-0.04269 -0.0984,-0.08925 -0.14111,-0.141111 -0.0519,-0.04233 -0.0984,-0.08925 -0.14146,-0.141111 -0.0515,-0.04233 -0.0984,-0.08925 -0.14111,-0.141111 -0.0515,-0.04233 -0.0984,-0.08925 -0.14112,-0.141111 -0.0519,-0.04233 -0.0988,-0.08925 -0.14146,-0.141111 -0.0515,-0.04233 -0.0984,-0.08925 -0.14111,-0.140759 -0.0519,-0.04269 -0.0984,-0.0896 -0.14146,-0.141111 -0.0515,-0.04269 -0.0984,-0.08961 -0.14112,-0.141111 -0.0515,-0.04269 -0.0984,-0.08925 -0.14111,-0.141111 -0.0519,-0.04269 -0.0988,-0.08925 -0.14146,-0.141111 -0.0515,-0.04233 -0.0984,-0.08925 -0.14111,-0.141111 -0.0519,-0.04233 -0.0984,-0.08925 -0.14147,-0.141111 -0.0515,-0.04233 -0.0984,-0.08925 -0.14111,-0.141111 -0.0519,-0.04233 -0.0984,-0.08925 -0.14111,-0.140759 -0.0519,-0.04269 -0.0988,-0.0896 -0.14146,-0.141111 -0.0515,-0.04269 -0.0984,-0.08961 -0.14111,-0.141111 -0.0519,-0.04269 -0.0984,-0.08961 -0.14111,-0.141111 -0.0519,-0.04269 -0.0988,-0.08961 -0.14147,-0.141111 -0.0515,-0.04269 -0.0984,-0.08961 -0.14111,-0.141111 -0.0519,-0.04269 -0.0984,-0.08925 -0.14146,-0.141111 -0.0515,-0.04269 -0.0984,-0.08925 -0.14111,-0.141112 -0.0515,-0.04269 -0.0984,-0.08925 -0.14112,-0.141111 -0.0519,-0.04233 -0.0988,-0.08925 -0.14146,-0.141111 -0.0515,-0.04233 -0.0984,-0.08925 -0.14111,-0.141111 -0.0519,-0.04233 -0.0984,-0.08925 -0.14146,-0.141111 -0.0515,-0.04233 -0.0984,-0.08925 -0.14112,-0.140758 -0.0515,-0.04269 -0.0984,-0.08961 -0.14111,-0.141111 -0.0519,-0.04269 -0.0988,-0.08961 -0.14146,-0.141112 -0.0515,-0.04269 -0.0984,-0.08925 -0.14111,-0.141111 -0.0519,-0.04269 -0.0988,-0.08925 -0.14147,-0.141111 -0.0515,-0.04269 -0.0984,-0.08925 -0.14111,-0.141111 -0.0519,-0.04233 -0.0984,-0.08925 -0.14111,-0.141111 -0.0519,-0.04233 -0.0988,-0.08925 -0.14146,-0.141111 -0.0515,-0.04233 -0.0984,-0.08925 -0.14111,-0.141111 -0.0519,-0.04233 -0.0988,-0.08925 -0.14147,-0.140759 -0.0515,-0.04269 -0.0984,-0.08961 -0.14111,-0.141111 -0.0515,-0.04269 -0.0984,-0.0896 -0.14111,-0.141111 -0.0519,-0.04269 -0.0988,-0.0896 -0.14146,-0.141111 -0.0515,-0.04269 -0.0984,-0.08961 -0.14111,-0.141111 -0.0515,-0.04269 -0.0984,-0.08961 -0.14112,-0.141111 -0.0519,-0.04269 -0.0988,-0.08925 -0.14146,-0.141111 -0.0515,-0.04269 -0.0984,-0.08925 -0.14111,-0.141112 -0.0519,-0.04233 -0.0988,-0.08925 -0.14146,-0.141111 -0.0515,-0.04233 -0.0984,-0.08925 -0.14112,-0.141111 -0.0515,-0.04233 -0.0984,-0.08925 -0.14111,-0.141111 -0.0519,-0.04233 -0.0988,-0.08925 -0.14146,-0.141111 -0.0515,-0.04233 -0.0984,-0.08925 -0.14111,-0.140758 -0.0519,-0.04269 -0.0988,-0.08961 -0.14147,-0.141111 -0.0515,-0.04269 -0.0984,-0.08961 -0.14111,-0.141112 -0.0519,-0.04269 -0.0984,-0.08925 -0.14111,-0.141111 -0.0519,-0.04269 -0.0988,-0.08925 -0.14146,-0.141111 -0.0515,-0.04233 -0.0984,-0.08925 -0.14111,-0.141111 -0.0519,-0.04233 -0.0988,-0.08925 -0.14147,-0.141111 -0.0515,-0.04233 -0.0984,-0.08925 -0.14111,-0.141111 -0.0519,-0.04233 -0.0984,-0.08925 -0.14111,-0.141111 -0.0519,-0.04233 -0.0988,-0.08925 -0.14146,-0.140759 -0.0515,-0.04269 -0.0984,-0.0896 -0.14111,-0.141111 -0.0519,-0.04269 -0.0984,-0.0896 -0.14111,-0.141111 -0.0519,-0.04269 -0.0988,-0.08961 -0.14147,-0.141111 -0.0515,-0.04269 -0.0984,-0.08961 -0.14111,-0.141111 -0.0519,-0.04269 -0.0988,-0.08961 -0.14146,-0.141111 -0.0515,-0.04269 -0.0984,-0.08925 -0.14111,-0.141111 -0.0519,-0.04269 -0.0984,-0.08925 -0.14112,-0.141111 -0.0519,-0.04233 -0.0988,-0.08925 -0.14146,-0.141112 -0.0515,-0.04233 -0.0984,-0.08925 -0.14111,-0.141111 -0.0519,-0.04233 -0.0988,-0.08925 -0.14146,-0.141111 -0.0515,-0.04233 -0.0984,-0.08925 -0.14112,-0.140758 -0.0519,-0.04269 -0.0984,-0.08961 -0.14111,-0.141111 -0.0519,-0.04269 -0.0988,-0.08961 -0.14146,-0.141111 -0.0515,-0.04269 -0.0984,-0.08961 -0.14111,-0.141112 -0.0519,-0.04269 -0.0988,-0.08925 -0.14147,-0.141111 -0.0515,-0.04269 -0.0984,-0.08925 -0.14111,-0.141111 -0.0519,-0.04233 -0.0984,-0.08925 -0.14111,-0.141111 -0.0519,-0.04233 -0.0988,-0.08925 -0.14146,-0.141111 -0.0515,-0.04233 -0.0984,-0.08925 -0.14111,-0.141111 -0.0519,-0.04233 -0.0984,-0.08925 -0.14111,-0.140758 -0.0519,-0.04269 -0.0988,-0.08961 -0.14147,-0.141112 -0.0515,-0.04269 -0.0984,-0.0896 -0.14111,-0.141111 -0.0519,-0.04269 -0.0988,-0.08961 -0.14146,-0.141111 -0.0515,-0.04269 -0.0984,-0.0896 -0.14111,-0.141111 -0.0519,-0.04269 -0.0984,-0.08961 -0.14112,-0.141111 -0.0519,-0.04269 -0.0988,-0.08925 -0.14146,-0.141111 -0.0515,-0.04269 -0.0984,-0.08925 -0.14111,-0.141111 -0.0519,-0.04233 -0.0988,-0.08925 -0.14146,-0.141111 -0.0515,-0.04233 -0.0984,-0.08925 -0.14112,-0.141112 -0.0519,-0.04233 -0.0984,-0.08925 -0.14111,-0.141111 -0.0519,-0.04233 -0.0988,-0.08925 -0.14146,-0.140758 -0.0515,-0.04269 -0.0984,-0.08961 -0.14111,-0.141111 -0.0519,-0.04269 -0.0988,-0.08961 -0.14147,-0.141111 -0.0515,-0.04269 -0.0984,-0.08961 -0.14111,-0.141111 -0.0519,-0.04269 -0.0984,-0.08925 -0.14111,-0.141112 -0.0519,-0.04269 -0.0988,-0.08925 -0.14146,-0.141111 -0.0515,-0.04233 -0.0984,-0.08925 -0.14111,-0.141111 -0.0519,-0.04233 -0.0988,-0.08925 -0.14147,-0.141111 -0.0515,-0.04233 -0.0984,-0.08925 -0.14111,-0.141111 -0.0515,-0.04233 -0.0984,-0.08925 -0.14111,-0.141111 -0.0519,-0.04233 -0.0988,-0.08925 -0.14146,-0.140758 -0.0515,-0.04269 -0.0984,-0.08961 -0.14111,-0.141112 -0.0519,-0.04269 -0.0984,-0.08961 -0.14112,-0.141111 -0.0519,-0.04269 -0.0988,-0.0896 -0.14146,-0.141111 -0.0515,-0.04269 -0.0984,-0.0896 -0.14111,-0.141111 -0.0519,-0.04269 -0.0988,-0.08961 -0.14146,-0.141111 -0.0515,-0.04269 -0.0984,-0.08925 -0.14112,-0.141111 -0.0519,-0.04269 -0.0984,-0.08925 -0.14111,-0.141111 -0.0519,-0.04233 -0.0988,-0.08925 -0.14146,-0.141111 -0.0515,-0.04233 -0.0984,-0.08925 -0.14111,-0.140759 -0.0519,-0.04269 -0.0988,-0.0896 -0.14147,-0.141111 -0.0515,-0.04269 -0.0984,-0.0896 -0.14111,-0.141111 -0.0519,-0.04269 -0.0984,-0.08961 -0.14111,-0.141111 -0.0519,-0.04269 -0.0988,-0.08961 -0.14146,-0.141111 -0.0515,-0.04269 -0.0984,-0.08961 -0.14111,-0.141111 -0.0519,-0.04269 -0.0988,-0.08925 -0.14147,-0.141111 -0.0515,-0.04269 -0.0984,-0.08925 -0.14111,-0.141112 -0.0519,-0.04233 -0.0984,-0.08925 -0.14111,-0.141111 -0.0519,-0.04233 -0.0988,-0.08925 -0.14146,-0.141111 -0.0515,-0.04233 -0.0984,-0.08925 -0.14111,-0.141111 -0.0519,-0.04233 -0.0984,-0.08925 -0.14111,-0.141111 -0.0519,-0.04233 -0.0988,-0.08925 -0.14147,-0.140758 -0.0515,-0.04269 -0.0984,-0.08961 -0.14111,-0.141112 -0.0519,-0.04269 -0.0988,-0.0896 -0.14146,-0.141111 -0.0564,-0.04657 -0.10725,-0.09842 -0.15276,-0.155575 -0.0459,-0.03951 -0.091,-0.08008 -0.12947,-0.126647 -0.0519,-0.04269 -0.0988,-0.0896 -0.14146,-0.141111 -0.0515,-0.04269 -0.0984,-0.08925 -0.14111,-0.141111 -0.0519,-0.04269 -0.0988,-0.08925 -0.14146,-0.141111 -0.0515,-0.04233 -0.0984,-0.08925 -0.14112,-0.140759 -0.0519,-0.04269 -0.0984,-0.0896 -0.14111,-0.141111 -0.0519,-0.04269 -0.0988,-0.0896 -0.14146,-0.141111 -0.0515,-0.04269 -0.0984,-0.0896 -0.14111,-0.141111 -0.0519,-0.04269 -0.0988,-0.08961 -0.14147,-0.141111 -0.0515,-0.04269 -0.0984,-0.08961 -0.14111,-0.141111 -0.0519,-0.04269 -0.0984,-0.08961 -0.14146,-0.141111 -0.0515,-0.04269 -0.0984,-0.08925 -0.14111,-0.141111 -0.0515,-0.04269 -0.0984,-0.08925 -0.14111,-0.141112 -0.0519,-0.04233 -0.0984,-0.08925 -0.14147,-0.141111 -0.0515,-0.04233 -0.0984,-0.08925 -0.14111,-0.141111 -0.0515,-0.04233 -0.0984,-0.08925 -0.14111,-0.141111 -0.0519,-0.04233 -0.0988,-0.08925 -0.14146,-0.140758 -0.0515,-0.04269 -0.0984,-0.08961 -0.14111,-0.141111 -0.0519,-0.04269 -0.0984,-0.08961 -0.14147,-0.141111 -0.0515,-0.04269 -0.0984,-0.08961 -0.14111,-0.141112 -0.0515,-0.04269 -0.0984,-0.08961 -0.14111,-0.141111 -0.0519,-0.04269 -0.0988,-0.0896 -0.14146,-0.141111 -0.0515,-0.04269 -0.0984,-0.08925 -0.14112,-0.141111 -0.0519,-0.04269 -0.0984,-0.08925 -0.14146,-0.141111 -0.0515,-0.04233 -0.0984,-0.08925 -0.14111,-0.141111 -0.0515,-0.04233 -0.0984,-0.08925 -0.14111,-0.140759 -0.0519,-0.04269 -0.0988,-0.0896 -0.14147,-0.141111 -0.0515,-0.04269 -0.0984,-0.0896 -0.14111,-0.141111 -0.0519,-0.04269 -0.0984,-0.0896 -0.14146,-0.141111 -0.0515,-0.04269 -0.0984,-0.0896 -0.14111,-0.141111 -0.0515,-0.04269 -0.0984,-0.08961 -0.14111,-0.141111 -0.0519,-0.04269 -0.0988,-0.08925 -0.14147,-0.141111 -0.0515,-0.04269 -0.0984,-0.08925 -0.14111,-0.141111 -0.0515,-0.04233 -0.0984,-0.08925 -0.14111,-0.141112 -0.0519,-0.04233 -0.0988,-0.08925 -0.14146,-0.141111 -0.0515,-0.04233 -0.0984,-0.08925 -0.14111,-0.141111 -0.0519,-0.04233 -0.0984,-0.08925 -0.14147,-0.141111 -0.0515,-0.04233 -0.0984,-0.08925 -0.14111,-0.140758 -0.0515,-0.04269 -0.0984,-0.08961 -0.14111,-0.141111 -0.0519,-0.04269 -0.0988,-0.08961 -0.14146,-0.141111 -0.0515,-0.04269 -0.0984,-0.08961 -0.14112,-0.141112 -0.0519,-0.04269 -0.0984,-0.0896 -0.14146,-0.141111 -0.0515,-0.04269 -0.0984,-0.0896 -0.14111,-0.141111 -0.0515,-0.04233 -0.0984,-0.08925 -0.14111,-0.141111 -0.0519,-0.04233 -0.0988,-0.08925 -0.14147,-0.141111 -0.0515,-0.04233 -0.0984,-0.08925 -0.14111,-0.141111 -0.0519,-0.04233 -0.0984,-0.08925 -0.14146,-0.140759 -0.0515,-0.04269 -0.0984,-0.0896 -0.14111,-0.141111 -0.0515,-0.04269 -0.0984,-0.0896 -0.14111,-0.141111 -0.0519,-0.04269 -0.0988,-0.0896 -0.14147,-0.141111 -0.0515,-0.04269 -0.0984,-0.0896 -0.14111,-0.141111 -0.0515,-0.04269 -0.0984,-0.08961 -0.14111,-0.141111 -0.0519,-0.04269 -0.0988,-0.08925 -0.14146,-0.141111 -0.0515,-0.04269 -0.0984,-0.08925 -0.14111,-0.141111 -0.0519,-0.04233 -0.0984,-0.08925 -0.14147,-0.141111 -0.0515,-0.04233 -0.0984,-0.08925 -0.14111,-0.141112 -0.0515,-0.04233 -0.0984,-0.08925 -0.14111,-0.141111 -0.0519,-0.04233 -0.0988,-0.08925 -0.14146,-0.141111 -0.0515,-0.04233 -0.0984,-0.08925 -0.14111,-0.140758 -0.0519,-0.04269 -0.0984,-0.08961 -0.14147,-0.141111 -0.0515,-0.04269 -0.0984,-0.08961 -0.14111,-0.141111 -0.0515,-0.04269 -0.0984,-0.08961 -0.14111,-0.141112 -0.0519,-0.04269 -0.0988,-0.08925 -0.14146,-0.141111 -0.0515,-0.04233 -0.0984,-0.08925 -0.14112,-0.141111 -0.0519,-0.04233 -0.0984,-0.08925 -0.14146,-0.141111 -0.0515,-0.04233 -0.0984,-0.08925 -0.14111,-0.141111 -0.0515,-0.04233 -0.0984,-0.08925 -0.14111,-0.140758 -0.0519,-0.04269 -0.0988,-0.08961 -0.14147,-0.141111 -0.0515,-0.04269 -0.0984,-0.08961 -0.14111,-0.141112 -0.0519,-0.04269 -0.0984,-0.0896 -0.14146,-0.141111 -0.0515,-0.04269 -0.0984,-0.0896 -0.14111,-0.141111 -0.0374,-0.03104 -0.0727,-0.06421 -0.10548,-0.100189 -0.52494,-2.399242 -0.83926,-4.8768 -0.92181,-7.413625 h 18.39489 c 0.47696,1.201561 1.11372,2.324453 1.88348,3.341511 h -0.002 l 0.0106,0.01341 c 0.67839,0.893586 1.46438,1.694744 2.33469,2.405591 3.12455,3.003551 18.33809,14.988824 18.33809,14.988824 v 0 c 0,0 15.82985,-10.943168 19.14561,-13.731876 0.91792,-0.652992 1.76106,-1.402645 2.49766,-2.251428 l 0.0106,-0.0095 h -0.002 c 2.05704,-2.370314 3.35138,-5.434895 3.46427,-8.817681 0.13335,-3.994503 -1.397,-7.658101 -3.96769,-10.324395 0.0215,0.02187 0.043,0.04374 0.0646,0.06526 0.048,0.04621 0.0942,0.09419 0.14146,0.141111 0.0476,0.04621 0.0938,0.09419 0.14112,0.141111 0.048,0.04621 0.0942,0.09419 0.14111,0.141111 0.048,0.04621 0.0942,0.09419 0.14146,0.141111 0.048,0.04621 0.0938,0.09419 0.14111,0.140758 0.048,0.04657 0.0942,0.09419 0.14147,0.141464 0.0476,0.04621 0.0938,0.09384 0.14111,0.140759 0.048,0.04657 0.0942,0.09419 0.14111,0.141111 0.048,0.04621 0.0942,0.09419 0.14146,0.141111 0.048,0.04621 0.0938,0.09419 0.14111,0.141111 0.048,0.04621 0.0942,0.09419 0.14147,0.141111 0.0476,0.04621 0.0938,0.09419 0.14111,0.141111 0.048,0.04621 0.0942,0.09419 0.14146,0.140759 0.0476,0.04657 0.0938,0.09454 0.14111,0.141463 0.048,0.04621 0.0938,0.09384 0.14111,0.140759 0.048,0.04657 0.0942,0.09419 0.14111,0.141464 0.048,0.04621 0.0942,0.09384 0.14147,0.140758 0.048,0.04621 0.0938,0.09419 0.14111,0.141111 0.048,0.04621 0.0942,0.09419 0.14146,0.141111 0.0476,0.04621 0.0938,0.09419 0.14111,0.141111 0.048,0.04621 0.0942,0.09419 0.14147,0.141112 0.0476,0.04621 0.0938,0.09419 0.14111,0.141111 0.048,0.04621 0.0942,0.09419 0.14111,0.141111 0.048,0.04621 0.0942,0.09419 0.14146,0.141111 0.0476,0.04621 0.0938,0.09419 0.14112,0.140758 0.048,0.04657 0.0942,0.09455 0.14146,0.141464 0.0476,0.04621 0.0938,0.09384 0.14111,0.140758 0.048,0.04621 0.0942,0.09419 0.14111,0.141112 0.048,0.04621 0.0942,0.09419 0.14147,0.141111 0.0476,0.04621 0.0938,0.09419 0.14111,0.141111 0.048,0.04621 0.0942,0.09419 0.14146,0.141111 0.0476,0.04621 0.0938,0.09419 0.14111,0.141111 0.048,0.04621 0.0942,0.09419 0.14111,0.140758 0.048,0.04657 0.0942,0.09455 0.14147,0.141464 0.0476,0.04621 0.0938,0.09384 0.14111,0.140759 0.048,0.04657 0.0942,0.09419 0.14111,0.141464 0.048,0.04621 0.0942,0.09384 0.14146,0.140758 0.0476,0.04621 0.0938,0.09419 0.14111,0.141464 0.048,0.04586 0.0942,0.09384 0.14147,0.140758 0.0476,0.04621 0.0938,0.09419 0.14111,0.141111 0.048,0.04621 0.0942,0.09419 0.14111,0.141111 0.048,0.04621 0.0942,0.09419 0.14146,0.141111 0.0476,0.04621 0.0938,0.09419 0.14112,0.141112 0.048,0.04621 0.0942,0.09419 0.14146,0.141111 0.0476,0.04621 0.0938,0.09419 0.14111,0.140758 0.048,0.04657 0.0942,0.09455 0.14111,0.141464 0.048,0.04621 0.0942,0.09384 0.14147,0.140758 0.0476,0.04621 0.0938,0.09419 0.14111,0.141111 0.048,0.04621 0.0942,0.09419 0.14146,0.141112 0.0476,0.04621 0.0938,0.09419 0.14111,0.141111 0.048,0.04621 0.0942,0.09419 0.14111,0.141111 0.048,0.04621 0.0942,0.09419 0.14147,0.141111 0.0476,0.04621 0.0938,0.09419 0.14111,0.141111 0.048,0.04621 0.0942,0.09419 0.14111,0.141111 0.048,0.04621 0.0942,0.09419 0.14146,0.140758 0.0476,0.04657 0.0938,0.09419 0.14111,0.141464 0.048,0.04621 0.0942,0.09384 0.14147,0.140759 0.0476,0.04657 0.0938,0.09419 0.14111,0.141464 0.048,0.04586 0.0942,0.09384 0.14111,0.140758 0.048,0.04621 0.0942,0.09419 0.14146,0.141111 0.0476,0.04621 0.0938,0.09419 0.14112,0.141111 0.048,0.04621 0.0942,0.09419 0.14146,0.141111 0.0476,0.04621 0.0938,0.09419 0.14111,0.141111 0.048,0.04621 0.0942,0.09419 0.14111,0.141112 0.048,0.04621 0.0942,0.09419 0.14147,0.141111 0.048,0.04621 0.0938,0.09419 0.14111,0.141111 0.048,0.04621 0.0942,0.09384 0.14146,0.140758 0.0476,0.04621 0.0938,0.09419 0.14111,0.141111 0.048,0.04621 0.0942,0.09419 0.14111,0.141111 0.048,0.04621 0.0942,0.09419 0.14147,0.141112 0.048,0.04621 0.0938,0.09419 0.14111,0.141111 0.048,0.04621 0.0942,0.09419 0.14146,0.141111 0.0476,0.04621 0.0938,0.09419 0.14111,0.141111 0.048,0.04621 0.0938,0.09419 0.14111,0.141111 0.048,0.04621 0.0942,0.09419 0.14147,0.140758 0.0476,0.04657 0.0938,0.09454 0.14111,0.141464 0.048,0.04621 0.0942,0.09384 0.14111,0.140759 0.048,0.04657 0.0942,0.09419 0.14146,0.141463 0.048,0.04621 0.0938,0.09384 0.14111,0.140759 0.048,0.04621 0.0942,0.09419 0.14147,0.141111 0.0476,0.04621 0.0938,0.09419 0.14111,0.141111 0.048,0.04621 0.0942,0.09419 0.14111,0.141111 0.048,0.04621 0.0942,0.09419 0.14146,0.141111 0.048,0.04621 0.0938,0.09419 0.14112,0.141111 0.048,0.04621 0.0942,0.09419 0.14146,0.141112 0.0476,0.04621 0.0938,0.09384 0.14111,0.141111 0.048,0.04621 0.0942,0.09384 0.14111,0.140758 0.048,0.04621 0.0942,0.09419 0.14147,0.141464 0.048,0.04586 0.0938,0.09384 0.14111,0.140758 0.048,0.04621 0.0942,0.09419 0.14146,0.141111 0.0476,0.04621 0.0938,0.09419 0.14111,0.141111 0.048,0.04621 0.0942,0.09419 0.14111,0.141112 0.048,0.04621 0.0942,0.09419 0.14147,0.141111 0.0476,0.04621 0.0938,0.09419 0.14111,0.141111 l 0.0254,0.02364 h 6.14997 c -0.17039,22.400685 -18.38219,40.505594 -40.82309,40.505594 M 146.69467,32.046015 c 0,-0.0018 3.5e-4,-0.0035 3.5e-4,-0.0049 0,0.0018 -3.5e-4,0.0032 -3.5e-4,0.0049 m 7.1e-4,-0.02152 c 0,-0.0025 0,-0.0053 3.5e-4,-0.0078 -3.5e-4,0.0028 -3.5e-4,0.0053 -3.5e-4,0.0078 m 7e-4,-0.02222 c 0,-0.0025 0,-0.0053 3.5e-4,-0.0081 -3.5e-4,0.0028 -3.5e-4,0.0056 -3.5e-4,0.0081 m 7.1e-4,-0.02222 c 0,-0.0025 0,-0.0053 3.5e-4,-0.0078 -3.5e-4,0.0025 -3.5e-4,0.0049 -3.5e-4,0.0078 m 0.001,-0.02963 v 0 c 0.25612,-7.6708 6.55391,-13.714942 14.17109,-13.714942 0.16016,0 0.32138,0.0025 0.4826,0.0081 0.007,0 0.0152,3.53e-4 0.0226,7.05e-4 -0.007,-3.52e-4 -0.0152,-7.05e-4 -0.0226,-7.05e-4 -0.16122,-0.0056 -0.32244,-0.0081 -0.4826,-0.0081 -7.61718,0 -13.91497,6.044142 -14.17109,13.714942 v 0 m 24.66164,-9.079442 c -0.0952,-0.104422 -0.19191,-0.207433 -0.29033,-0.309033 0.009,0.0088 0.0176,0.01764 0.0264,0.02646 0.0473,0.04692 0.0942,0.09384 0.14112,0.141111 0.0445,0.04374 0.0885,0.08784 0.13264,0.132292 -0.004,0.0032 -0.007,0.006 -0.01,0.0092 m 10.68882,-3.930297 c -3.6e-4,0 -0.001,0 -0.002,0 3.6e-4,0 0.001,0 0.002,0 m -0.0183,-0.0011 c -0.002,-3.52e-4 -0.004,-3.52e-4 -0.006,-3.52e-4 0.002,0 0.004,0 0.006,3.52e-4 m -0.0212,-0.0014 c -0.002,0 -0.005,-3.52e-4 -0.007,-3.52e-4 0.002,0 0.004,3.52e-4 0.007,3.52e-4 m -0.0201,-0.0011 c -0.004,-3.53e-4 -0.006,-3.53e-4 -0.01,-7.06e-4 0.003,3.53e-4 0.007,3.53e-4 0.01,7.06e-4 m -0.0215,-0.0014 c -0.003,0 -0.007,-3.53e-4 -0.0106,-3.53e-4 0.004,0 0.007,3.53e-4 0.0106,3.53e-4 m -0.0212,-0.0011 c -0.004,0 -0.008,-3.53e-4 -0.0127,-7.06e-4 0.004,3.53e-4 0.008,7.06e-4 0.0127,7.06e-4 m -0.0215,-0.0011 c -0.004,-3.53e-4 -0.009,-3.53e-4 -0.0134,-7.05e-4 0.005,3.52e-4 0.009,3.52e-4 0.0134,7.05e-4 m -0.0226,-0.0011 c -0.005,-3.53e-4 -0.009,-3.53e-4 -0.0134,-7.06e-4 0.004,3.53e-4 0.009,3.53e-4 0.0134,7.06e-4 m -0.0222,-0.0011 c -0.005,-3.53e-4 -0.009,-7.06e-4 -0.0141,-7.06e-4 0.005,0 0.01,3.53e-4 0.0141,7.06e-4 m -0.0219,-0.0014 c -0.005,0 -0.0102,-3.52e-4 -0.0155,-3.52e-4 0.005,0 0.0106,3.52e-4 0.0155,3.52e-4 m -0.0222,-7.05e-4 c -0.005,-3.53e-4 -0.0102,-7.06e-4 -0.0148,-7.06e-4 0.005,3.53e-4 0.01,3.53e-4 0.0148,7.06e-4 m -0.0229,-0.0011 c -0.005,-3.53e-4 -0.0102,-7.06e-4 -0.0148,-7.06e-4 0.005,0 0.01,3.53e-4 0.0148,7.06e-4 m -0.0226,-0.0011 c -0.005,-3.53e-4 -0.0102,-3.53e-4 -0.0152,-7.05e-4 0.005,3.52e-4 0.0102,3.52e-4 0.0152,7.05e-4 m -0.0222,-0.0011 c -0.006,0 -0.0106,-3.53e-4 -0.0162,-7.06e-4 0.005,3.53e-4 0.0109,7.06e-4 0.0162,7.06e-4 m -0.0222,-7.06e-4 c -0.005,-3.53e-4 -0.0113,-7.05e-4 -0.0166,-7.05e-4 0.006,3.52e-4 0.0106,3.52e-4 0.0166,7.05e-4 m -0.0229,-0.0011 c -0.006,0 -0.0116,-3.53e-4 -0.0173,-7.06e-4 0.006,3.53e-4 0.0116,7.06e-4 0.0173,7.06e-4 m -0.0222,-7.06e-4 c -0.006,-3.52e-4 -0.0116,-3.52e-4 -0.0173,-7.05e-4 0.006,3.53e-4 0.0116,3.53e-4 0.0173,7.05e-4 m -0.0229,-0.0011 c -0.008,0 -0.0148,-3.53e-4 -0.0226,-7.06e-4 v 0 0 c 0.008,3.53e-4 0.0152,7.06e-4 0.0226,7.06e-4 M 161.66086,18.25696 c -3.5e-4,-3.53e-4 -0.001,-3.53e-4 -0.001,-3.53e-4 0,0 7e-4,0 0.001,3.53e-4 m -0.0205,-0.0014 c -10e-4,0 -0.002,0 -0.004,0 0.001,0 0.002,0 0.004,0 m -0.0215,-0.0011 c -0.002,0 -0.003,0 -0.005,-3.53e-4 0.001,3.53e-4 0.003,3.53e-4 0.005,3.53e-4 m -0.0208,-0.0011 c -0.002,-3.52e-4 -0.005,-3.52e-4 -0.007,-3.52e-4 0.002,0 0.005,0 0.007,3.52e-4 m -0.0222,-0.0011 c -0.002,0 -0.005,-3.53e-4 -0.007,-3.53e-4 0.002,0 0.005,3.53e-4 0.007,3.53e-4 m -0.0219,-0.0011 c -0.003,0 -0.006,-3.53e-4 -0.009,-3.53e-4 0.003,0 0.006,3.53e-4 0.009,3.53e-4 m -0.0222,-0.0011 c -0.003,0 -0.006,-3.52e-4 -0.009,-3.52e-4 0.003,0 0.006,3.52e-4 0.009,3.52e-4 m -0.0226,-0.0011 c -0.003,0 -0.006,-3.53e-4 -0.009,-3.53e-4 0.003,0 0.006,3.53e-4 0.009,3.53e-4 m -0.0222,-0.0011 c -0.004,0 -0.006,0 -0.01,-3.53e-4 0.003,3.53e-4 0.006,3.53e-4 0.01,3.53e-4 m -0.0226,-7.06e-4 c -0.004,-3.53e-4 -0.008,-3.53e-4 -0.0113,-7.05e-4 0.004,3.52e-4 0.007,3.52e-4 0.0113,7.05e-4 m -0.0222,-0.0011 c -0.005,0 -0.008,-3.53e-4 -0.0127,-3.53e-4 0.004,0 0.008,3.53e-4 0.0127,3.53e-4 m -0.0226,-7.06e-4 c -0.005,-3.53e-4 -0.009,-7.05e-4 -0.0141,-7.05e-4 0.005,0 0.009,3.52e-4 0.0141,7.05e-4 m -0.0226,-0.0011 c -0.005,-3.53e-4 -0.0109,-3.53e-4 -0.0159,-3.53e-4 0.005,0 0.0106,0 0.0159,3.53e-4"
       style="fill:#ff9955;fill-opacity:1;fill-rule:nonzero;stroke:none;stroke-width:0.0352778"
       id="path152" />
    <path
       d="m 191.89821,42.396516 c 2.05704,-2.370314 3.35138,-5.434895 3.46427,-8.817681 0.26141,-7.833079 -5.87551,-14.39404 -13.70753,-14.65686 -3.98251,-0.13335 -7.62953,1.39312 -10.29547,3.948995 -2.48708,-2.728031 -6.02333,-4.494036 -10.00795,-4.627386 -7.83202,-0.261761 -14.39192,5.874808 -14.65369,13.706828 -0.11571,3.385256 0.97297,6.528154 2.86738,9.031112 h -0.002 l 0.0106,0.01341 c 0.67839,0.893586 1.46438,1.694744 2.33469,2.405591 3.12455,3.003551 18.33809,14.988824 18.33809,14.988824 0,0 15.82985,-10.943168 19.14561,-13.731876 0.91792,-0.652992 1.76106,-1.402645 2.49766,-2.251428 l 0.0106,-0.0095 h -0.002"
       style="fill:#f25864;fill-opacity:1;fill-rule:nonzero;stroke:none;stroke-width:0.0352778"
       id="path154" />
    <path
       d="m 170.24682,58.389345 c 0,0 -15.21354,-11.985273 -18.33809,-14.988824 -0.87031,-0.710847 -1.6563,-1.512005 -2.33469,-2.405591 l -0.0106,-0.01341 h 0.002 v 0 c -1.80199,-2.380544 -2.87478,-5.34035 -2.87584,-8.53687 0,-0.164042 0.003,-0.328789 0.008,-0.494242 0.25612,-7.6708 6.55391,-13.714942 14.17109,-13.714942 0.16016,0 0.32138,0.0025 0.4826,0.0081 3.98462,0.13335 7.52087,1.899355 10.00795,4.627386 l -1.11266,35.518375 v 0"
       style="fill:#f0525c;fill-opacity:1;fill-rule:nonzero;stroke:none;stroke-width:0.0352778"
       id="path156" />
    <path
       d="m 125.33468,39.75668 h 36.09799 c 0.47307,0 0.8897,-0.315384 1.01847,-0.77082 l 3.0353,-10.739967 6.3507,22.469829 c 0.12877,0.455436 0.5454,0.770819 1.01847,0.770819 0.47308,0 0.88971,-0.315383 1.01847,-0.770819 l 3.38984,-11.994445 h 37.27486 c 0.58455,0 1.05833,-0.473781 1.05833,-1.058334 0,-0.5842 -0.47378,-1.058333 -1.05833,-1.058333 h -38.07531 c -0.47307,0 -0.89006,0.315383 -1.01847,0.770819 l -2.58939,9.161287 -6.3507,-22.470182 c -0.12877,-0.455083 -0.5454,-0.770467 -1.01847,-0.770467 -0.47308,0 -0.88971,0.315384 -1.01847,0.770467 l -3.83611,13.573479 h -35.29718 c -0.58455,0 -1.05833,0.47378 -1.05833,1.058333 0,0.5842 0.47378,1.058334 1.05833,1.058334"
       style="fill:#fbc447;fill-opacity:1;fill-rule:nonzero;stroke:none;stroke-width:0.0352778"
       id="path158" />
  </g>
</svg>
