<?xml version="1.0" encoding="UTF-8"?>
<!-- Generator: Adobe Illustrator 21.0.0, SVG Export Plug-In . SVG Version: 6.00 Build 0)  -->
<svg version="1.1" id="Layer_1" xmlns="http://www.w3.org/2000/svg" xmlns:xlink="http://www.w3.org/1999/xlink" x="0px" y="0px" viewBox="0 0 4000 4000" style="enable-background:new 0 0 4000 4000;" xml:space="preserve">
<style type="text/css">
	.st0{fill:#8247E5;}
</style>
<g>
	<g>
		<defs>
			<path id="SVGID_1_" d="M2000,0c1104.6,0,2000,895.4,2000,2000s-895.4,2000-2000,2000S0,3104.6,0,2000S895.4,0,2000,0L2000,0z"/>
		</defs>
		<use xlink:href="#SVGID_1_" style="overflow:visible;fill-rule:evenodd;clip-rule:evenodd;fill:#2E2A51;"/>
		<clipPath id="SVGID_2_">
			<use xlink:href="#SVGID_1_" style="overflow:visible;"/>
		</clipPath>
	</g>
</g>
<path class="st0" d="M2675.4,1585.1c-47.9-28.8-110.3-28.8-163,0l-374,220.5l-254.1,143.8l-374,220.5c-47.9,28.8-110.3,28.8-163,0  l-297.3-172.6c-47.9-28.8-81.5-81.5-81.5-139V1518c0-57.5,28.8-110.3,81.5-139l292.5-167.8c47.9-28.8,110.3-28.8,163,0L1798,1379  c47.9,28.8,81.5,81.5,81.5,139v220.5l254.1-148.6v-220.5c0-57.5-28.8-110.3-81.5-139l-541.8-316.4c-47.9-28.8-110.3-28.8-163,0  L796,1230.3c-52.7,28.8-81.5,81.5-81.5,139V2007c0,57.5,28.8,110.3,81.5,139l551.4,316.4c47.9,28.8,110.3,28.8,163,0l374-215.7  l254.1-148.6l374-215.7c47.9-28.8,110.3-28.8,163,0l292.5,167.8c47.9,28.8,81.5,81.5,81.5,139v340.4c0,57.5-28.8,110.3-81.5,139  l-292.5,172.6c-47.9,28.8-110.3,28.8-163,0l-292.5-167.8c-47.9-28.8-81.5-81.5-81.5-139v-220.5l-254.1,148.6V2683  c0,57.5,28.8,110.3,81.5,139l551.4,316.4c47.9,28.8,110.3,28.8,163,0l551.4-316.4c47.9-28.8,81.5-81.5,81.5-139v-637.7  c0-57.5-28.8-110.3-81.5-139L2675.4,1585.1z"/>
</svg>